<svg xmlns="http://www.w3.org/2000/svg" xmlns:xlink="http://www.w3.org/1999/xlink" width="733pt" height="490pt" viewBox="0.00 0.00 733.01 489.60">
<g id="graph0" class="graph" transform="scale(1 1) rotate(0) translate(4 485.6)">
<polygon fill="white" stroke="none" points="-4,4 -4,-485.6 729.01,-485.6 729.01,4 -4,4"/>
<!-- gst_plugin_desc -->
<g id="node1" class="node">
<title>gst_plugin_desc</title>
<polygon fill="#f2f2f2" stroke="black" points="72.92,-0.5 72.92,-36.5 219.17,-36.5 219.17,-0.5 72.92,-0.5"/>
<text text-anchor="middle" x="146.04" y="-14.3" font-family="Times,serif" font-size="14.00">export gst_plugin_desc</text>
</g>
<!-- GstElement -->
<g id="node2" class="node">
<title>GstElement</title>
<polygon fill="#f2f2f2" stroke="black" points="35,-421.5 35,-457.5 117.09,-457.5 117.09,-421.5 35,-421.5"/>
<text text-anchor="middle" x="76.04" y="-435.3" font-family="Times,serif" font-size="14.00">GstElement</text>
</g>
<!-- GstBase -->
<g id="node3" class="node">
<title>GstBase</title>
<polygon fill="#f2f2f2" stroke="black" points="0,-259.3 0,-295.3 152.09,-295.3 152.09,-259.3 0,-259.3"/>
<text text-anchor="middle" x="76.04" y="-273.1" font-family="Times,serif" font-size="14.00">GstBaseTransformClass</text>
</g>
<!-- GstElement&#45;&gt;GstBase -->
<g id="edge1" class="edge">
<title>GstElement-&gt;GstBase</title>
<path fill="none" stroke="black" d="M76.04,-409.85C76.04,-376.69 76.04,-323.16 76.04,-295.73"/>
<polygon fill="none" stroke="black" points="72.55,-409.54 76.04,-419.54 79.55,-409.54 72.55,-409.54"/>
</g>
<!-- DlsTransform -->
<g id="node4" class="node">
<title>DlsTransform</title>
<polygon fill="#f2f2f2" stroke="black" points="89.05,-97.1 89.05,-133.1 203.04,-133.1 203.04,-97.1 89.05,-97.1"/>
<text text-anchor="middle" x="146.04" y="-110.9" font-family="Times,serif" font-size="14.00">GstDlsTransform</text>
</g>
<!-- GstBase&#45;&gt;DlsTransform -->
<g id="edge2" class="edge">
<title>GstBase-&gt;DlsTransform</title>
<path fill="none" stroke="black" d="M88.19,-248.51C102.64,-215.43 126.34,-161.2 138.43,-133.53"/>
<polygon fill="none" stroke="black" points="85.07,-246.9 84.28,-257.46 91.49,-249.7 85.07,-246.9"/>
</g>
<!-- DlsTransform&#45;&gt;gst_plugin_desc -->
<g id="edge4" class="edge">
<title>DlsTransform-&gt;gst_plugin_desc</title>
<path fill="none" stroke="black" d="M146.04,-85.4C146.04,-69.52 146.04,-50.31 146.04,-36.74"/>
<polygon fill="none" stroke="black" points="142.55,-85.24 146.04,-95.24 149.55,-85.24 142.55,-85.24"/>
</g>
<!-- Desc -->
<g id="node5" class="node">
<title>Desc</title>
<polygon fill="#b0e2ff" stroke="black" points="169.73,-193.7 169.73,-360.9 260.36,-360.9 260.36,-193.7 169.73,-193.7"/>
<text text-anchor="middle" x="215.04" y="-344.3" font-family="Times,serif" font-size="14.00">ElementDesc</text>
<polyline fill="none" stroke="black" points="169.73,-336.1 260.36,-336.1"/>
<text text-anchor="start" x="177.73" y="-319.5" font-family="Times,serif" font-size="14.00">+name</text>
<text text-anchor="start" x="177.73" y="-302.7" font-family="Times,serif" font-size="14.00">+description</text>
<text text-anchor="start" x="177.73" y="-285.9" font-family="Times,serif" font-size="14.00">+author</text>
<text text-anchor="start" x="177.73" y="-269.1" font-family="Times,serif" font-size="14.00">+params</text>
<text text-anchor="start" x="177.73" y="-252.3" font-family="Times,serif" font-size="14.00">+input_info</text>
<text text-anchor="start" x="177.73" y="-235.5" font-family="Times,serif" font-size="14.00">+output_info</text>
<text text-anchor="start" x="177.73" y="-218.7" font-family="Times,serif" font-size="14.00">+flags</text>
<text text-anchor="start" x="177.73" y="-201.9" font-family="Times,serif" font-size="14.00">+create</text>
</g>
<!-- Desc&#45;&gt;DlsTransform -->
<g id="edge3" class="edge">
<title>Desc-&gt;DlsTransform</title>
<path fill="none" stroke="black" d="M174.99,-183.3C166.74,-164.14 158.92,-145.99 153.49,-133.39"/>
<polygon fill="black" stroke="black" points="178.85,-192.27 170.76,-184.86 177.35,-188.79 174.89,-183.08 174.89,-183.08 174.89,-183.08 177.35,-188.79 179.03,-181.3 178.85,-192.27"/>
</g>
<!-- Element -->
<g id="node6" class="node">
<title>Element</title>
<polygon fill="#b0e2ff" stroke="black" points="461.78,-397.9 461.78,-481.1 574.31,-481.1 574.31,-397.9 461.78,-397.9"/>
<text text-anchor="middle" x="518.04" y="-464.5" font-family="Times,serif" font-size="14.00">«interface»</text>
<text text-anchor="middle" x="518.04" y="-447.7" font-family="Times,serif" font-size="14.00">Element</text>
<polyline fill="none" stroke="black" points="461.78,-439.5 574.31,-439.5"/>
<text text-anchor="start" x="469.78" y="-422.9" font-family="Times,serif" font-size="14.00">+ init()</text>
<text text-anchor="start" x="469.78" y="-406.1" font-family="Times,serif" font-size="14.00">+ get_context(...)</text>
</g>
<!-- Element&#45;&gt;DlsTransform -->
<g id="edge5" class="edge">
<title>Element-&gt;DlsTransform</title>
<path fill="none" stroke="black" d="M450.73,-430.84C403.84,-421.94 343.41,-402.75 307.04,-361.4 256.43,-303.85 313.36,-255.73 269.04,-193.2 249.74,-165.95 217.47,-146.26 190.82,-133.6"/>
<polygon fill="black" stroke="black" points="460.53,-432.57 449.89,-435.26 456.8,-431.91 450.68,-430.83 450.68,-430.83 450.68,-430.83 456.8,-431.91 451.46,-426.4 460.53,-432.57"/>
<text text-anchor="middle" x="285.63" y="-267.2" font-family="Times,serif" font-size="14.00">element</text>
</g>
<!-- Transform -->
<g id="node7" class="node">
<title>Transform</title>
<polygon fill="#b0e2ff" stroke="black" points="315.98,-202.1 315.98,-352.5 512.11,-352.5 512.11,-202.1 315.98,-202.1"/>
<text text-anchor="middle" x="414.04" y="-335.9" font-family="Times,serif" font-size="14.00">«interface»</text>
<text text-anchor="middle" x="414.04" y="-319.1" font-family="Times,serif" font-size="14.00">Transform</text>
<polyline fill="none" stroke="black" points="315.98,-310.9 512.11,-310.9"/>
<text text-anchor="start" x="323.98" y="-294.3" font-family="Times,serif" font-size="14.00">+ set_input_info(...)</text>
<text text-anchor="start" x="323.98" y="-277.5" font-family="Times,serif" font-size="14.00">+ set_output_info(...)</text>
<text text-anchor="start" x="323.98" y="-260.7" font-family="Times,serif" font-size="14.00">+ get_input_info(...)</text>
<text text-anchor="start" x="323.98" y="-243.9" font-family="Times,serif" font-size="14.00">+ get_output_info(...)</text>
<text text-anchor="start" x="323.98" y="-227.1" font-family="Times,serif" font-size="14.00">+ process(TensorPtr, TensorPtr)</text>
<text text-anchor="start" x="323.98" y="-210.3" font-family="Times,serif" font-size="14.00">+ process(FramePtr, FramePtr)</text>
</g>
<!-- Element&#45;&gt;Transform -->
<g id="edge6" class="edge">
<title>Element-&gt;Transform</title>
<path fill="none" stroke="black" d="M485.29,-388.05C478,-376.81 470.12,-364.67 462.35,-352.7"/>
<polygon fill="none" stroke="black" points="482.33,-389.91 490.71,-396.39 488.2,-386.1 482.33,-389.91"/>
</g>
<!-- TransformInplace -->
<g id="node8" class="node">
<title>TransformInplace</title>
<polygon fill="#b0e2ff" stroke="black" points="529.62,-227.3 529.62,-327.3 714.47,-327.3 714.47,-227.3 529.62,-227.3"/>
<text text-anchor="middle" x="622.04" y="-310.7" font-family="Times,serif" font-size="14.00">«interface»</text>
<text text-anchor="middle" x="622.04" y="-293.9" font-family="Times,serif" font-size="14.00">TransformInplace</text>
<polyline fill="none" stroke="black" points="529.62,-285.7 714.47,-285.7"/>
<text text-anchor="start" x="537.62" y="-269.1" font-family="Times,serif" font-size="14.00">+ set_info(const FrameInfo&amp;)</text>
<text text-anchor="start" x="537.62" y="-252.3" font-family="Times,serif" font-size="14.00">+ process(TensorPtr)</text>
<text text-anchor="start" x="537.62" y="-235.5" font-family="Times,serif" font-size="14.00">+ process(FramePtr)</text>
</g>
<!-- Element&#45;&gt;TransformInplace -->
<g id="edge7" class="edge">
<title>Element-&gt;TransformInplace</title>
<path fill="none" stroke="black" d="M550.74,-388.13C563.27,-368.83 577.55,-346.84 590.02,-327.64"/>
<polygon fill="none" stroke="black" points="547.89,-386.1 545.38,-396.39 553.76,-389.91 547.89,-386.1"/>
</g>
<!-- BaseT1 -->
<g id="node9" class="node">
<title>BaseT1</title>
<polygon fill="#b0e2ff" stroke="black" points="331.67,-73.5 331.67,-156.7 496.42,-156.7 496.42,-73.5 331.67,-73.5"/>
<text text-anchor="middle" x="414.04" y="-140.1" font-family="Times,serif" font-size="14.00">BaseElement&lt;Transform&gt;</text>
<polyline fill="none" stroke="black" points="331.67,-131.9 496.42,-131.9"/>
<text text-anchor="start" x="339.67" y="-115.3" font-family="Times,serif" font-size="14.00">+ init_once()</text>
<text text-anchor="start" x="339.67" y="-98.5" font-family="Times,serif" font-size="14.00">+ init()</text>
<text text-anchor="start" x="339.67" y="-81.7" font-family="Times,serif" font-size="14.00">+ get_context(...)</text>
</g>
<!-- Transform&#45;&gt;BaseT1 -->
<g id="edge8" class="edge">
<title>Transform-&gt;BaseT1</title>
<path fill="none" stroke="black" d="M414.04,-190.65C414.04,-179.01 414.04,-167.52 414.04,-157.19"/>
<polygon fill="none" stroke="black" points="410.55,-190.31 414.04,-200.31 417.55,-190.31 410.55,-190.31"/>
</g>
<!-- BaseT2 -->
<g id="node10" class="node">
<title>BaseT2</title>
<polygon fill="#b0e2ff" stroke="black" points="519.08,-73.5 519.08,-156.7 725.01,-156.7 725.01,-73.5 519.08,-73.5"/>
<text text-anchor="middle" x="622.04" y="-140.1" font-family="Times,serif" font-size="14.00">BaseElement&lt;TransformInplace&gt;</text>
<polyline fill="none" stroke="black" points="519.08,-131.9 725.01,-131.9"/>
<text text-anchor="start" x="527.08" y="-115.3" font-family="Times,serif" font-size="14.00">+ init_once()</text>
<text text-anchor="start" x="527.08" y="-98.5" font-family="Times,serif" font-size="14.00">+ init()</text>
<text text-anchor="start" x="527.08" y="-81.7" font-family="Times,serif" font-size="14.00">+ get_context(...)</text>
</g>
<!-- TransformInplace&#45;&gt;BaseT2 -->
<g id="edge9" class="edge">
<title>TransformInplace-&gt;BaseT2</title>
<path fill="none" stroke="black" d="M622.04,-215.62C622.04,-196.02 622.04,-174.78 622.04,-156.97"/>
<polygon fill="none" stroke="black" points="618.55,-215.41 622.04,-225.41 625.55,-215.41 618.55,-215.41"/>
</g>
<!-- BaseTransform -->
<g id="node11" class="node">
<title>BaseTransform</title>
<polygon fill="#b0e2ff" stroke="black" points="362.89,-0.5 362.89,-36.5 465.2,-36.5 465.2,-0.5 362.89,-0.5"/>
<text text-anchor="middle" x="414.04" y="-14.3" font-family="Times,serif" font-size="14.00">BaseTransform</text>
</g>
<!-- BaseT1&#45;&gt;BaseTransform -->
<g id="edge10" class="edge">
<title>BaseT1-&gt;BaseTransform</title>
<path fill="none" stroke="black" d="M414.04,-61.71C414.04,-52.69 414.04,-43.93 414.04,-36.74"/>
<polygon fill="none" stroke="black" points="410.55,-61.64 414.04,-71.64 417.55,-61.64 410.55,-61.64"/>
</g>
<!-- BaseInplace -->
<g id="node12" class="node">
<title>BaseInplace</title>
<polygon fill="#b0e2ff" stroke="black" points="550.3,-0.5 550.3,-36.5 693.79,-36.5 693.79,-0.5 550.3,-0.5"/>
<text text-anchor="middle" x="622.04" y="-14.3" font-family="Times,serif" font-size="14.00">BaseTransformInplace</text>
</g>
<!-- BaseT2&#45;&gt;BaseInplace -->
<g id="edge11" class="edge">
<title>BaseT2-&gt;BaseInplace</title>
<path fill="none" stroke="black" d="M622.04,-61.71C622.04,-52.69 622.04,-43.93 622.04,-36.74"/>
<polygon fill="none" stroke="black" points="618.55,-61.64 622.04,-71.64 625.55,-61.64 618.55,-61.64"/>
</g>
</g>
</svg>