<svg xmlns="http://www.w3.org/2000/svg" xmlns:xlink="http://www.w3.org/1999/xlink" width="722pt" height="557pt" viewBox="0.00 0.00 721.93 556.80">
<g id="graph0" class="graph" transform="scale(1 1) rotate(0) translate(4 552.8)">
<polygon fill="white" stroke="none" points="-4,4 -4,-552.8 717.93,-552.8 717.93,4 -4,4"/>
<!-- Desc -->
<g id="node1" class="node">
<title>Desc</title>
<polygon fill="#b0e2ff" stroke="black" points="194.95,-381.1 194.95,-548.3 285.58,-548.3 285.58,-381.1 194.95,-381.1"/>
<text text-anchor="middle" x="240.26" y="-531.7" font-family="Times,serif" font-size="14.00">ElementDesc</text>
<polyline fill="none" stroke="black" points="194.95,-523.5 285.58,-523.5"/>
<text text-anchor="start" x="202.95" y="-506.9" font-family="Times,serif" font-size="14.00">+name</text>
<text text-anchor="start" x="202.95" y="-490.1" font-family="Times,serif" font-size="14.00">+description</text>
<text text-anchor="start" x="202.95" y="-473.3" font-family="Times,serif" font-size="14.00">+author</text>
<text text-anchor="start" x="202.95" y="-456.5" font-family="Times,serif" font-size="14.00">+params</text>
<text text-anchor="start" x="202.95" y="-439.7" font-family="Times,serif" font-size="14.00">+input_info</text>
<text text-anchor="start" x="202.95" y="-422.9" font-family="Times,serif" font-size="14.00">+output_info</text>
<text text-anchor="start" x="202.95" y="-406.1" font-family="Times,serif" font-size="14.00">+flags</text>
<text text-anchor="start" x="202.95" y="-389.3" font-family="Times,serif" font-size="14.00">+create</text>
</g>
<!-- Element -->
<g id="node2" class="node">
<title>Element</title>
<polygon fill="#b0e2ff" stroke="black" points="304,-423.1 304,-506.3 416.53,-506.3 416.53,-423.1 304,-423.1"/>
<text text-anchor="middle" x="360.26" y="-489.7" font-family="Times,serif" font-size="14.00">«interface»</text>
<text text-anchor="middle" x="360.26" y="-472.9" font-family="Times,serif" font-size="14.00">Element</text>
<polyline fill="none" stroke="black" points="304,-464.7 416.53,-464.7"/>
<text text-anchor="start" x="312" y="-448.1" font-family="Times,serif" font-size="14.00">+ init()</text>
<text text-anchor="start" x="312" y="-431.3" font-family="Times,serif" font-size="14.00">+ get_context(...)</text>
</g>
<!-- Source -->
<g id="node3" class="node">
<title>Source</title>
<polygon fill="#b0e2ff" stroke="black" points="3.94,-227.3 3.94,-310.5 140.59,-310.5 140.59,-227.3 3.94,-227.3"/>
<text text-anchor="middle" x="72.26" y="-293.9" font-family="Times,serif" font-size="14.00">«interface»Source</text>
<polyline fill="none" stroke="black" points="3.94,-285.7 140.59,-285.7"/>
<text text-anchor="start" x="11.94" y="-269.1" font-family="Times,serif" font-size="14.00">+ set_output_info(...)</text>
<text text-anchor="start" x="11.94" y="-252.3" font-family="Times,serif" font-size="14.00">+ get_output_info(...)</text>
<text text-anchor="start" x="11.94" y="-235.5" font-family="Times,serif" font-size="14.00">+ read()</text>
</g>
<!-- Element&#45;&gt;Source -->
<g id="edge1" class="edge">
<title>Element-&gt;Source</title>
<path fill="none" stroke="black" d="M329.27,-413.81C319.44,-401.39 307.61,-389.18 294.26,-380.6 238.41,-344.69 207.32,-376.83 149.26,-344.6 133.63,-335.92 118.9,-323.25 106.58,-310.79"/>
<polygon fill="none" stroke="black" points="326.35,-415.75 335.16,-421.64 331.94,-411.55 326.35,-415.75"/>
</g>
<!-- Transform -->
<g id="node4" class="node">
<title>Transform</title>
<polygon fill="#b0e2ff" stroke="black" points="158.2,-193.7 158.2,-344.1 354.33,-344.1 354.33,-193.7 158.2,-193.7"/>
<text text-anchor="middle" x="256.26" y="-327.5" font-family="Times,serif" font-size="14.00">«interface»</text>
<text text-anchor="middle" x="256.26" y="-310.7" font-family="Times,serif" font-size="14.00">Transform</text>
<polyline fill="none" stroke="black" points="158.2,-302.5 354.33,-302.5"/>
<text text-anchor="start" x="166.2" y="-285.9" font-family="Times,serif" font-size="14.00">+ set_input_info(...)</text>
<text text-anchor="start" x="166.2" y="-269.1" font-family="Times,serif" font-size="14.00">+ set_output_info(...)</text>
<text text-anchor="start" x="166.2" y="-252.3" font-family="Times,serif" font-size="14.00">+ get_input_info(...)</text>
<text text-anchor="start" x="166.2" y="-235.5" font-family="Times,serif" font-size="14.00">+ get_output_info(...)</text>
<text text-anchor="start" x="166.2" y="-218.7" font-family="Times,serif" font-size="14.00">+ process(TensorPtr, TensorPtr)</text>
<text text-anchor="start" x="166.2" y="-201.9" font-family="Times,serif" font-size="14.00">+ process(FramePtr, FramePtr)</text>
</g>
<!-- Element&#45;&gt;Transform -->
<g id="edge2" class="edge">
<title>Element-&gt;Transform</title>
<path fill="none" stroke="black" d="M332.89,-412.69C321.72,-391.87 308.57,-367.36 296.34,-344.59"/>
<polygon fill="none" stroke="black" points="329.68,-414.11 337.49,-421.27 335.85,-410.8 329.68,-414.11"/>
</g>
<!-- TransformInplace -->
<g id="node5" class="node">
<title>TransformInplace</title>
<polygon fill="#b0e2ff" stroke="black" points="371.84,-218.9 371.84,-318.9 556.69,-318.9 556.69,-218.9 371.84,-218.9"/>
<text text-anchor="middle" x="464.26" y="-302.3" font-family="Times,serif" font-size="14.00">«interface»</text>
<text text-anchor="middle" x="464.26" y="-285.5" font-family="Times,serif" font-size="14.00">TransformInplace</text>
<polyline fill="none" stroke="black" points="371.84,-277.3 556.69,-277.3"/>
<text text-anchor="start" x="379.84" y="-260.7" font-family="Times,serif" font-size="14.00">+ set_info(const FrameInfo&amp;)</text>
<text text-anchor="start" x="379.84" y="-243.9" font-family="Times,serif" font-size="14.00">+ process(TensorPtr)</text>
<text text-anchor="start" x="379.84" y="-227.1" font-family="Times,serif" font-size="14.00">+ process(FramePtr)</text>
</g>
<!-- Element&#45;&gt;TransformInplace -->
<g id="edge3" class="edge">
<title>Element-&gt;TransformInplace</title>
<path fill="none" stroke="black" d="M387.64,-412.69C403.15,-383.79 422.46,-347.8 437.82,-319.18"/>
<polygon fill="none" stroke="black" points="384.68,-410.8 383.04,-421.27 390.85,-414.11 384.68,-410.8"/>
</g>
<!-- Sink -->
<g id="node6" class="node">
<title>Sink</title>
<polygon fill="#b0e2ff" stroke="black" points="579.44,-227.3 579.44,-310.5 709.09,-310.5 709.09,-227.3 579.44,-227.3"/>
<text text-anchor="middle" x="644.26" y="-293.9" font-family="Times,serif" font-size="14.00">«interface»Sink</text>
<polyline fill="none" stroke="black" points="579.44,-285.7 709.09,-285.7"/>
<text text-anchor="start" x="587.44" y="-269.1" font-family="Times,serif" font-size="14.00">+ set_input_info(...)</text>
<text text-anchor="start" x="587.44" y="-252.3" font-family="Times,serif" font-size="14.00">+ get_input_info(...)</text>
<text text-anchor="start" x="587.44" y="-235.5" font-family="Times,serif" font-size="14.00">+ write(FramePtr)</text>
</g>
<!-- Element&#45;&gt;Sink -->
<g id="edge4" class="edge">
<title>Element-&gt;Sink</title>
<path fill="none" stroke="black" d="M426.8,-430.12C468.14,-408.04 521.56,-377.27 565.26,-344.6 578.72,-334.54 592.37,-322.45 604.45,-310.95"/>
<polygon fill="none" stroke="black" points="425.36,-426.92 418.17,-434.69 428.64,-433.1 425.36,-426.92"/>
</g>
<!-- BaseESource -->
<g id="node7" class="node">
<title>BaseESource</title>
<polygon fill="#b0e2ff" stroke="black" points="0,-73.5 0,-156.7 144.53,-156.7 144.53,-73.5 0,-73.5"/>
<text text-anchor="middle" x="72.26" y="-140.1" font-family="Times,serif" font-size="14.00">BaseElement&lt;Source&gt;</text>
<polyline fill="none" stroke="black" points="0,-131.9 144.53,-131.9"/>
<text text-anchor="start" x="8" y="-115.3" font-family="Times,serif" font-size="14.00">+ init_once()</text>
<text text-anchor="start" x="8" y="-98.5" font-family="Times,serif" font-size="14.00">+ init()</text>
<text text-anchor="start" x="8" y="-81.7" font-family="Times,serif" font-size="14.00">+ get_context(...)</text>
</g>
<!-- Source&#45;&gt;BaseESource -->
<g id="edge5" class="edge">
<title>Source-&gt;BaseESource</title>
<path fill="none" stroke="black" d="M72.26,-215.53C72.26,-196.36 72.26,-174.97 72.26,-156.95"/>
<polygon fill="none" stroke="black" points="68.76,-215.31 72.26,-225.31 75.76,-215.31 68.76,-215.31"/>
</g>
<!-- BaseT1 -->
<g id="node8" class="node">
<title>BaseT1</title>
<polygon fill="#b0e2ff" stroke="black" points="173.89,-73.5 173.89,-156.7 338.64,-156.7 338.64,-73.5 173.89,-73.5"/>
<text text-anchor="middle" x="256.26" y="-140.1" font-family="Times,serif" font-size="14.00">BaseElement&lt;Transform&gt;</text>
<polyline fill="none" stroke="black" points="173.89,-131.9 338.64,-131.9"/>
<text text-anchor="start" x="181.89" y="-115.3" font-family="Times,serif" font-size="14.00">+ init_once()</text>
<text text-anchor="start" x="181.89" y="-98.5" font-family="Times,serif" font-size="14.00">+ init()</text>
<text text-anchor="start" x="181.89" y="-81.7" font-family="Times,serif" font-size="14.00">+ get_context(...)</text>
</g>
<!-- Transform&#45;&gt;BaseT1 -->
<g id="edge6" class="edge">
<title>Transform-&gt;BaseT1</title>
<path fill="none" stroke="black" d="M256.26,-181.98C256.26,-173.39 256.26,-164.98 256.26,-157.19"/>
<polygon fill="none" stroke="black" points="252.76,-181.82 256.26,-191.82 259.76,-181.82 252.76,-181.82"/>
</g>
<!-- BaseT2 -->
<g id="node9" class="node">
<title>BaseT2</title>
<polygon fill="#b0e2ff" stroke="black" points="358.3,-73.5 358.3,-156.7 564.23,-156.7 564.23,-73.5 358.3,-73.5"/>
<text text-anchor="middle" x="461.26" y="-140.1" font-family="Times,serif" font-size="14.00">BaseElement&lt;TransformInplace&gt;</text>
<polyline fill="none" stroke="black" points="358.3,-131.9 564.23,-131.9"/>
<text text-anchor="start" x="366.3" y="-115.3" font-family="Times,serif" font-size="14.00">+ init_once()</text>
<text text-anchor="start" x="366.3" y="-98.5" font-family="Times,serif" font-size="14.00">+ init()</text>
<text text-anchor="start" x="366.3" y="-81.7" font-family="Times,serif" font-size="14.00">+ get_context(...)</text>
</g>
<!-- TransformInplace&#45;&gt;BaseT2 -->
<g id="edge7" class="edge">
<title>TransformInplace-&gt;BaseT2</title>
<path fill="none" stroke="black" d="M463.06,-207.16C462.73,-190.32 462.38,-172.44 462.07,-157.02"/>
<polygon fill="none" stroke="black" points="459.56,-207.17 463.26,-217.1 466.56,-207.03 459.56,-207.17"/>
</g>
<!-- BaseESink -->
<g id="node10" class="node">
<title>BaseESink</title>
<polygon fill="#b0e2ff" stroke="black" points="582.6,-73.5 582.6,-156.7 713.93,-156.7 713.93,-73.5 582.6,-73.5"/>
<text text-anchor="middle" x="648.26" y="-140.1" font-family="Times,serif" font-size="14.00">BaseElement&lt;Sink&gt;</text>
<polyline fill="none" stroke="black" points="582.6,-131.9 713.93,-131.9"/>
<text text-anchor="start" x="590.6" y="-115.3" font-family="Times,serif" font-size="14.00">+ init_once()</text>
<text text-anchor="start" x="590.6" y="-98.5" font-family="Times,serif" font-size="14.00">+ init()</text>
<text text-anchor="start" x="590.6" y="-81.7" font-family="Times,serif" font-size="14.00">+ get_context(...)</text>
</g>
<!-- Sink&#45;&gt;BaseESink -->
<g id="edge8" class="edge">
<title>Sink-&gt;BaseESink</title>
<path fill="none" stroke="black" d="M645.64,-215.53C646.15,-196.36 646.71,-174.97 647.19,-156.95"/>
<polygon fill="none" stroke="black" points="642.15,-215.22 645.39,-225.31 649.15,-215.4 642.15,-215.22"/>
</g>
<!-- BaseSource -->
<g id="node11" class="node">
<title>BaseSource</title>
<polygon fill="#b0e2ff" stroke="black" points="31.22,-0.5 31.22,-36.5 113.31,-36.5 113.31,-0.5 31.22,-0.5"/>
<text text-anchor="middle" x="72.26" y="-14.3" font-family="Times,serif" font-size="14.00">BaseSource</text>
</g>
<!-- BaseESource&#45;&gt;BaseSource -->
<g id="edge9" class="edge">
<title>BaseESource-&gt;BaseSource</title>
<path fill="none" stroke="black" d="M72.26,-61.71C72.26,-52.69 72.26,-43.93 72.26,-36.74"/>
<polygon fill="none" stroke="black" points="68.76,-61.64 72.26,-71.64 75.76,-61.64 68.76,-61.64"/>
</g>
<!-- BaseTransform -->
<g id="node12" class="node">
<title>BaseTransform</title>
<polygon fill="#b0e2ff" stroke="black" points="205.11,-0.5 205.11,-36.5 307.42,-36.5 307.42,-0.5 205.11,-0.5"/>
<text text-anchor="middle" x="256.26" y="-14.3" font-family="Times,serif" font-size="14.00">BaseTransform</text>
</g>
<!-- BaseT1&#45;&gt;BaseTransform -->
<g id="edge10" class="edge">
<title>BaseT1-&gt;BaseTransform</title>
<path fill="none" stroke="black" d="M256.26,-61.71C256.26,-52.69 256.26,-43.93 256.26,-36.74"/>
<polygon fill="none" stroke="black" points="252.76,-61.64 256.26,-71.64 259.76,-61.64 252.76,-61.64"/>
</g>
<!-- BaseInplace -->
<g id="node13" class="node">
<title>BaseInplace</title>
<polygon fill="#b0e2ff" stroke="black" points="389.52,-0.5 389.52,-36.5 533.01,-36.5 533.01,-0.5 389.52,-0.5"/>
<text text-anchor="middle" x="461.26" y="-14.3" font-family="Times,serif" font-size="14.00">BaseTransformInplace</text>
</g>
<!-- BaseT2&#45;&gt;BaseInplace -->
<g id="edge11" class="edge">
<title>BaseT2-&gt;BaseInplace</title>
<path fill="none" stroke="black" d="M461.26,-61.71C461.26,-52.69 461.26,-43.93 461.26,-36.74"/>
<polygon fill="none" stroke="black" points="457.76,-61.64 461.26,-71.64 464.76,-61.64 457.76,-61.64"/>
</g>
<!-- BaseSink -->
<g id="node14" class="node">
<title>BaseSink</title>
<polygon fill="#b0e2ff" stroke="black" points="613.82,-0.5 613.82,-36.5 682.71,-36.5 682.71,-0.5 613.82,-0.5"/>
<text text-anchor="middle" x="648.26" y="-14.3" font-family="Times,serif" font-size="14.00">BaseSink</text>
</g>
<!-- BaseESink&#45;&gt;BaseSink -->
<g id="edge12" class="edge">
<title>BaseESink-&gt;BaseSink</title>
<path fill="none" stroke="black" d="M648.26,-61.71C648.26,-52.69 648.26,-43.93 648.26,-36.74"/>
<polygon fill="none" stroke="black" points="644.76,-61.64 648.26,-71.64 651.76,-61.64 644.76,-61.64"/>
</g>
</g>
</svg>