<svg xmlns="http://www.w3.org/2000/svg" xmlns:xlink="http://www.w3.org/1999/xlink" width="549pt" height="45pt" viewBox="0.00 0.00 549.44 45.00">
<g id="graph0" class="graph" transform="scale(1 1) rotate(0) translate(4 41)">
<polygon fill="white" stroke="none" points="-4,4 -4,-41 545.44,-41 545.44,4 -4,4"/>
<!-- USM0 -->
<g id="node1" class="node">
<title>USM0</title>
<polygon fill="#b0e2ff" stroke="black" points="283.46,-0.5 283.46,-36.5 403.25,-36.5 403.25,-0.5 283.46,-0.5"/>
<text text-anchor="middle" x="343.35" y="-14.4" font-family="Times,serif" font-size="14.00">USM (Level-zero)</text>
</g>
<!-- USM1 -->
<g id="node2" class="node">
<title>USM1</title>
<polygon fill="#b0e2ff" stroke="black" points="439.25,-0.5 439.25,-36.5 541.44,-36.5 541.44,-0.5 439.25,-0.5"/>
<text text-anchor="middle" x="490.34" y="-14.4" font-family="Times,serif" font-size="14.00">USM (DPC++)</text>
</g>
<!-- USM0&#45;&gt;USM1 -->
<g id="edge4" class="edge">
<title>USM0-&gt;USM1</title>
<path fill="none" stroke="black" d="M403.74,-18.5C411.62,-18.5 419.72,-18.5 427.64,-18.5"/>
<polygon fill="black" stroke="black" points="427.56,-22 437.56,-18.5 427.56,-15 427.56,-22"/>
</g>
<!-- FFmpeg -->
<g id="node3" class="node">
<title>FFmpeg</title>
<polygon fill="#b0e2ff" stroke="black" points="0,-0.5 0,-36.5 62.68,-36.5 62.68,-0.5 0,-0.5"/>
<text text-anchor="middle" x="31.34" y="-14.4" font-family="Times,serif" font-size="14.00">FFmpeg</text>
</g>
<!-- VAAPI -->
<g id="node4" class="node">
<title>VAAPI</title>
<polygon fill="#b0e2ff" stroke="black" points="98.68,-0.5 98.68,-36.5 157.46,-36.5 157.46,-0.5 98.68,-0.5"/>
<text text-anchor="middle" x="128.07" y="-14.4" font-family="Times,serif" font-size="14.00">VAAPI</text>
</g>
<!-- FFmpeg&#45;&gt;VAAPI -->
<g id="edge1" class="edge">
<title>FFmpeg-&gt;VAAPI</title>
<path fill="none" stroke="black" d="M63.09,-18.5C70.72,-18.5 78.99,-18.5 86.99,-18.5"/>
<polygon fill="black" stroke="black" points="86.88,-22 96.88,-18.5 86.88,-15 86.88,-22"/>
</g>
<!-- DMA -->
<g id="node5" class="node">
<title>DMA</title>
<polygon fill="#b0e2ff" stroke="black" points="193.46,-0.5 193.46,-36.5 247.46,-36.5 247.46,-0.5 193.46,-0.5"/>
<text text-anchor="middle" x="220.46" y="-14.4" font-family="Times,serif" font-size="14.00">DMA</text>
</g>
<!-- VAAPI&#45;&gt;DMA -->
<g id="edge2" class="edge">
<title>VAAPI-&gt;DMA</title>
<path fill="none" stroke="black" d="M157.67,-18.5C165.31,-18.5 173.69,-18.5 181.75,-18.5"/>
<polygon fill="black" stroke="black" points="181.68,-22 191.68,-18.5 181.68,-15 181.68,-22"/>
</g>
<!-- DMA&#45;&gt;USM0 -->
<g id="edge3" class="edge">
<title>DMA-&gt;USM0</title>
<path fill="none" stroke="black" d="M247.69,-18.5C255.03,-18.5 263.37,-18.5 271.99,-18.5"/>
<polygon fill="black" stroke="black" points="271.91,-22 281.91,-18.5 271.91,-15 271.91,-22"/>
</g>
</g>
</svg>