<svg xmlns="http://www.w3.org/2000/svg" xmlns:xlink="http://www.w3.org/1999/xlink" width="731pt" height="101pt" viewBox="0.00 0.00 730.82 101.00">
<g id="graph0" class="graph" transform="scale(1 1) rotate(0) translate(4 97)">
<title>cpu_cpu</title>
<polygon fill="white" stroke="none" points="-4,4 -4,-97 726.82,-97 726.82,4 -4,4"/>
<g id="clust1" class="cluster">
<title>cluster_pre</title>
<path fill="none" stroke="black" stroke-dasharray="1,5" d="M20,-8C20,-8 347.36,-8 347.36,-8 353.36,-8 359.36,-14 359.36,-20 359.36,-20 359.36,-73 359.36,-73 359.36,-79 353.36,-85 347.36,-85 347.36,-85 20,-85 20,-85 14,-85 8,-79 8,-73 8,-73 8,-20 8,-20 8,-14 14,-8 20,-8"/>
<text text-anchor="middle" x="183.68" y="-68.4" font-family="Times,serif" font-size="14.00">Pre-processing stage</text>
</g>
<!-- preproc_in -->
<g id="node1" class="node">
<title>preproc_in</title>
<path fill="#f2f2f2" stroke="black" d="M79.08,-52C79.08,-52 28,-52 28,-52 22,-52 16,-46 16,-40 16,-40 16,-28 16,-28 16,-22 22,-16 28,-16 28,-16 79.08,-16 79.08,-16 85.08,-16 91.08,-22 91.08,-28 91.08,-28 91.08,-40 91.08,-40 91.08,-46 85.08,-52 79.08,-52"/>
<text text-anchor="middle" x="53.54" y="-29.8" font-family="Times,serif" font-size="14.00">videoscale</text>
</g>
<!-- videoconvert -->
<g id="node3" class="node">
<title>videoconvert</title>
<path fill="#f2f2f2" stroke="black" d="M204.17,-52C204.17,-52 139.08,-52 139.08,-52 133.08,-52 127.08,-46 127.08,-40 127.08,-40 127.08,-28 127.08,-28 127.08,-22 133.08,-16 139.08,-16 139.08,-16 204.17,-16 204.17,-16 210.17,-16 216.17,-22 216.17,-28 216.17,-28 216.17,-40 216.17,-40 216.17,-46 210.17,-52 204.17,-52"/>
<text text-anchor="middle" x="171.62" y="-29.8" font-family="Times,serif" font-size="14.00">videoconvert</text>
</g>
<!-- preproc_in&#45;&gt;videoconvert -->
<g id="edge1" class="edge">
<title>preproc_in-&gt;videoconvert</title>
<path fill="none" stroke="black" d="M91.27,-34C98.95,-34 107.2,-34 115.38,-34"/>
<polygon fill="black" stroke="black" points="115.31,-37.5 125.31,-34 115.31,-30.5 115.31,-37.5"/>
</g>
<!-- preproc_out -->
<g id="node2" class="node">
<title>preproc_out</title>
<path fill="#b0e2ff" stroke="black" d="M339.36,-52C339.36,-52 264.17,-52 264.17,-52 258.17,-52 252.17,-46 252.17,-40 252.17,-40 252.17,-28 252.17,-28 252.17,-22 258.17,-16 264.17,-16 264.17,-16 339.36,-16 339.36,-16 345.36,-16 351.36,-22 351.36,-28 351.36,-28 351.36,-40 351.36,-40 351.36,-46 345.36,-52 339.36,-52"/>
<text text-anchor="middle" x="301.76" y="-29.8" font-family="Times,serif" font-size="14.00">tensor_convert</text>
</g>
<!-- infer -->
<g id="node4" class="node">
<title>infer</title>
<path fill="#b0e2ff" stroke="black" d="M543.75,-52C543.75,-52 399.36,-52 399.36,-52 393.36,-52 387.36,-46 387.36,-40 387.36,-40 387.36,-28 387.36,-28 387.36,-22 393.36,-16 399.36,-16 399.36,-16 543.75,-16 543.75,-16 549.75,-16 555.75,-22 555.75,-28 555.75,-28 555.75,-40 555.75,-40 555.75,-46 549.75,-52 543.75,-52"/>
<text text-anchor="middle" x="471.55" y="-29.8" font-family="Times,serif" font-size="14.00">openvino_tensor_inference</text>
</g>
<!-- preproc_out&#45;&gt;infer -->
<g id="edge3" class="edge">
<title>preproc_out-&gt;infer</title>
<path fill="none" stroke="black" d="M351.75,-34C359.39,-34 367.51,-34 375.77,-34"/>
<polygon fill="black" stroke="black" points="375.58,-37.5 385.58,-34 375.58,-30.5 375.58,-37.5"/>
</g>
<!-- videoconvert&#45;&gt;preproc_out -->
<g id="edge2" class="edge">
<title>videoconvert-&gt;preproc_out</title>
<path fill="none" stroke="black" d="M216.36,-34C224.15,-34 232.38,-34 240.53,-34"/>
<polygon fill="black" stroke="black" points="240.43,-37.5 250.43,-34 240.43,-30.5 240.43,-37.5"/>
</g>
<!-- postproc -->
<g id="node5" class="node">
<title>postproc</title>
<path fill="#b0e2ff" stroke="black" d="M710.82,-52C710.82,-52 603.75,-52 603.75,-52 597.75,-52 591.75,-46 591.75,-40 591.75,-40 591.75,-28 591.75,-28 591.75,-22 597.75,-16 603.75,-16 603.75,-16 710.82,-16 710.82,-16 716.82,-16 722.82,-22 722.82,-28 722.82,-28 722.82,-40 722.82,-40 722.82,-46 716.82,-52 710.82,-52"/>
<text text-anchor="start" x="599.75" y="-30.8" font-family="Times,serif" font-size="14.00">tensor_postproc_</text>
<text text-anchor="start" x="696.17" y="-30.8" font-family="Times,serif" font-style="italic" font-size="14.00">xxx</text>
</g>
<!-- infer&#45;&gt;postproc -->
<g id="edge4" class="edge">
<title>infer-&gt;postproc</title>
<path fill="none" stroke="black" d="M556.08,-34C564.05,-34 572.09,-34 579.98,-34"/>
<polygon fill="black" stroke="black" points="579.88,-37.5 589.88,-34 579.88,-30.5 579.88,-37.5"/>
</g>
</g>
</svg>