<svg xmlns="http://www.w3.org/2000/svg" xmlns:xlink="http://www.w3.org/1999/xlink" width="506pt" height="45pt" viewBox="0.00 0.00 505.92 45.00">
<g id="graph0" class="graph" transform="scale(1 1) rotate(0) translate(4 41)">
<polygon fill="white" stroke="none" points="-4,4 -4,-41 501.92,-41 501.92,4 -4,4"/>
<!-- UMat -->
<g id="node1" class="node">
<title>UMat</title>
<polygon fill="#b0e2ff" stroke="black" points="374.99,-0.5 374.99,-36.5 497.92,-36.5 497.92,-0.5 374.99,-0.5"/>
<text text-anchor="middle" x="436.46" y="-14.4" font-family="Times,serif" font-size="14.00">OpenCV cv::UMat</text>
</g>
<!-- Gst -->
<g id="node2" class="node">
<title>Gst</title>
<polygon fill="#b0e2ff" stroke="black" points="0,-0.5 0,-36.5 54,-36.5 54,-0.5 0,-0.5"/>
<text text-anchor="middle" x="27" y="-14.4" font-family="Times,serif" font-size="14.00">Gst</text>
</g>
<!-- VAAPI -->
<g id="node3" class="node">
<title>VAAPI</title>
<polygon fill="#b0e2ff" stroke="black" points="90,-0.5 90,-36.5 148.78,-36.5 148.78,-0.5 90,-0.5"/>
<text text-anchor="middle" x="119.39" y="-14.4" font-family="Times,serif" font-size="14.00">VAAPI</text>
</g>
<!-- Gst&#45;&gt;VAAPI -->
<g id="edge1" class="edge">
<title>Gst-&gt;VAAPI</title>
<path fill="none" stroke="black" d="M54.14,-18.5C61.73,-18.5 70.19,-18.5 78.41,-18.5"/>
<polygon fill="black" stroke="black" points="78.26,-22 88.26,-18.5 78.26,-15 78.26,-22"/>
</g>
<!-- DMA -->
<g id="node4" class="node">
<title>DMA</title>
<polygon fill="#b0e2ff" stroke="black" points="184.78,-0.5 184.78,-36.5 238.78,-36.5 238.78,-0.5 184.78,-0.5"/>
<text text-anchor="middle" x="211.78" y="-14.4" font-family="Times,serif" font-size="14.00">DMA</text>
</g>
<!-- VAAPI&#45;&gt;DMA -->
<g id="edge2" class="edge">
<title>VAAPI-&gt;DMA</title>
<path fill="none" stroke="black" d="M148.99,-18.5C156.63,-18.5 165.02,-18.5 173.07,-18.5"/>
<polygon fill="black" stroke="black" points="173,-22 183,-18.5 173,-15 173,-22"/>
</g>
<!-- OpenCL -->
<g id="node5" class="node">
<title>OpenCL</title>
<polygon fill="#b0e2ff" stroke="black" points="274.78,-0.5 274.78,-36.5 338.99,-36.5 338.99,-0.5 274.78,-0.5"/>
<text text-anchor="middle" x="306.89" y="-14.4" font-family="Times,serif" font-size="14.00">OpenCL</text>
</g>
<!-- DMA&#45;&gt;OpenCL -->
<g id="edge3" class="edge">
<title>DMA-&gt;OpenCL</title>
<path fill="none" stroke="black" d="M239.21,-18.5C246.67,-18.5 254.97,-18.5 263.12,-18.5"/>
<polygon fill="black" stroke="black" points="262.92,-22 272.92,-18.5 262.92,-15 262.92,-22"/>
</g>
<!-- OpenCL&#45;&gt;UMat -->
<g id="edge4" class="edge">
<title>OpenCL-&gt;UMat</title>
<path fill="none" stroke="black" d="M339.42,-18.5C346.78,-18.5 354.91,-18.5 363.23,-18.5"/>
<polygon fill="black" stroke="black" points="363.14,-22 373.14,-18.5 363.14,-15 363.14,-22"/>
</g>
</g>
</svg>