<svg xmlns="http://www.w3.org/2000/svg" xmlns:xlink="http://www.w3.org/1999/xlink" width="561pt" height="67pt" viewBox="0.00 0.00 560.83 67.00">
<g id="graph0" class="graph" transform="scale(1 1) rotate(0) translate(4 63)">
<polygon fill="white" stroke="none" points="-4,4 -4,-63 556.83,-63 556.83,4 -4,4"/>
<!-- tee -->
<g id="node1" class="node">
<title>tee</title>
<path fill="#f2f2f2" stroke="black" d="M42,-36C42,-36 12,-36 12,-36 6,-36 0,-30 0,-24 0,-24 0,-12 0,-12 0,-6 6,0 12,0 12,0 42,0 42,0 48,0 54,-6 54,-12 54,-12 54,-24 54,-24 54,-30 48,-36 42,-36"/>
<text text-anchor="middle" x="27" y="-13.8" font-family="Times,serif" font-size="14.00">tee</text>
</g>
<!-- preproc -->
<g id="node2" class="node">
<title>preproc</title>
<path fill="white" stroke="black" d="M177.2,-59C177.2,-59 102,-59 102,-59 96,-59 90,-53 90,-47 90,-47 90,-35 90,-35 90,-29 96,-23 102,-23 102,-23 177.2,-23 177.2,-23 183.2,-23 189.2,-29 189.2,-35 189.2,-35 189.2,-47 189.2,-47 189.2,-53 183.2,-59 177.2,-59"/>
<text text-anchor="middle" x="139.6" y="-36.8" font-family="Times,serif" font-size="14.00">Pre-processing</text>
</g>
<!-- tee&#45;&gt;preproc -->
<g id="edge1" class="edge">
<title>tee-&gt;preproc</title>
<path fill="none" stroke="black" d="M54.49,-23.51C61.87,-25.04 70.19,-26.77 78.66,-28.54"/>
<polygon fill="black" stroke="black" points="77.83,-31.94 88.33,-30.55 79.26,-25.08 77.83,-31.94"/>
</g>
<!-- aggregate -->
<g id="node5" class="node">
<title>aggregate</title>
<path fill="white" stroke="black" d="M540.83,-36C540.83,-36 490.52,-36 490.52,-36 484.52,-36 478.52,-30 478.52,-24 478.52,-24 478.52,-12 478.52,-12 478.52,-6 484.52,0 490.52,0 490.52,0 540.83,0 540.83,0 546.83,0 552.83,-6 552.83,-12 552.83,-12 552.83,-24 552.83,-24 552.83,-30 546.83,-36 540.83,-36"/>
<text text-anchor="middle" x="515.68" y="-13.8" font-family="Times,serif" font-size="14.00">Aggregate</text>
</g>
<!-- tee&#45;&gt;aggregate -->
<g id="edge5" class="edge">
<title>tee-&gt;aggregate</title>
<path fill="none" stroke="black" d="M54.23,-15.93C65.26,-15.16 78.25,-14.38 90,-14 246.6,-8.95 285.91,-9.66 442.52,-14 450.45,-14.22 458.86,-14.57 467.04,-14.98"/>
<polygon fill="black" stroke="black" points="466.67,-18.47 476.85,-15.51 467.05,-11.48 466.67,-18.47"/>
</g>
<!-- processing -->
<g id="node3" class="node">
<title>processing</title>
<path fill="white" stroke="black" d="M289.86,-59C289.86,-59 237.2,-59 237.2,-59 231.2,-59 225.2,-53 225.2,-47 225.2,-47 225.2,-35 225.2,-35 225.2,-29 231.2,-23 237.2,-23 237.2,-23 289.86,-23 289.86,-23 295.86,-23 301.86,-29 301.86,-35 301.86,-35 301.86,-47 301.86,-47 301.86,-53 295.86,-59 289.86,-59"/>
<text text-anchor="middle" x="263.53" y="-36.8" font-family="Times,serif" font-size="14.00">Processing</text>
</g>
<!-- preproc&#45;&gt;processing -->
<g id="edge2" class="edge">
<title>preproc-&gt;processing</title>
<path fill="none" stroke="black" d="M189.49,-41C197.42,-41 205.62,-41 213.55,-41"/>
<polygon fill="black" stroke="black" points="213.38,-44.5 223.38,-41 213.38,-37.5 213.38,-44.5"/>
</g>
<!-- postproc -->
<g id="node4" class="node">
<title>postproc</title>
<path fill="white" stroke="black" d="M430.52,-59C430.52,-59 349.86,-59 349.86,-59 343.86,-59 337.86,-53 337.86,-47 337.86,-47 337.86,-35 337.86,-35 337.86,-29 343.86,-23 349.86,-23 349.86,-23 430.52,-23 430.52,-23 436.52,-23 442.52,-29 442.52,-35 442.52,-35 442.52,-47 442.52,-47 442.52,-53 436.52,-59 430.52,-59"/>
<text text-anchor="middle" x="390.19" y="-36.8" font-family="Times,serif" font-size="14.00">Post-processing</text>
</g>
<!-- processing&#45;&gt;postproc -->
<g id="edge3" class="edge">
<title>processing-&gt;postproc</title>
<path fill="none" stroke="black" d="M302.27,-41C309.96,-41 318.24,-41 326.53,-41"/>
<polygon fill="black" stroke="black" points="326.26,-44.5 336.26,-41 326.26,-37.5 326.26,-44.5"/>
</g>
<!-- postproc&#45;&gt;aggregate -->
<g id="edge4" class="edge">
<title>postproc-&gt;aggregate</title>
<path fill="none" stroke="black" d="M442.85,-31.38C450.84,-29.89 459.06,-28.36 466.96,-26.89"/>
<polygon fill="black" stroke="black" points="467.57,-30.34 476.76,-25.06 466.28,-23.45 467.57,-30.34"/>
</g>
</g>
</svg>