<svg xmlns="http://www.w3.org/2000/svg" xmlns:xlink="http://www.w3.org/1999/xlink" width="623pt" height="1043pt" viewBox="0.00 0.00 623.00 1043.44">
<g id="graph0" class="graph" transform="scale(1 1) rotate(0) translate(4 1039.44)">
<polygon fill="white" stroke="none" points="-4,4 -4,-1039.44 619,-1039.44 619,4 -4,4"/>
<!-- gst -->
<g id="node1" class="node">
<title>gst</title>
<polygon fill="none" stroke="black" points="144,-1035.44 0,-1035.44 0,-999.44 144,-999.44 144,-1035.44"/>
<text text-anchor="middle" x="72" y="-1013.24" font-family="Times,serif" font-size="14.00">GStreamer</text>
</g>
<!-- a1 -->
<g id="node4" class="node">
<title>a1</title>
</g>
<!-- gst&#45;&gt;a1 -->
<g id="edge1" class="edge">
<title>gst-&gt;a1</title>
<path fill="none" stroke="black" stroke-dasharray="5,2" d="M72,-999.06C72,-983.76 72,-963.74 72,-962.5"/>
</g>
<!-- shim -->
<g id="node2" class="node">
<title>shim</title>
<polygon fill="none" stroke="black" points="360,-1035.44 216,-1035.44 216,-999.44 360,-999.44 360,-1035.44"/>
<text text-anchor="middle" x="288" y="-1013.24" font-family="Times,serif" font-size="14.00">GstDlsTransform</text>
</g>
<!-- b1 -->
<g id="node30" class="node">
<title>b1</title>
</g>
<!-- shim&#45;&gt;b1 -->
<g id="edge27" class="edge">
<title>shim-&gt;b1</title>
<path fill="none" stroke="black" stroke-dasharray="5,2" d="M288,-999.06C288,-983.76 288,-963.74 288,-962.5"/>
</g>
<!-- cpp -->
<g id="node3" class="node">
<title>cpp</title>
<polygon fill="none" stroke="black" points="615,-1035.44 471,-1035.44 471,-999.44 615,-999.44 615,-1035.44"/>
<text text-anchor="middle" x="543" y="-1013.24" font-family="Times,serif" font-size="14.00">C++ element</text>
</g>
<!-- c1 -->
<g id="node56" class="node">
<title>c1</title>
</g>
<!-- cpp&#45;&gt;c1 -->
<g id="edge53" class="edge">
<title>cpp-&gt;c1</title>
<path fill="none" stroke="black" stroke-dasharray="5,2" d="M543,-999.06C543,-983.76 543,-963.74 543,-962.5"/>
</g>
<!-- a2 -->
<g id="node5" class="node">
<title>a2</title>
</g>
<!-- a1&#45;&gt;a2 -->
<g id="edge2" class="edge">
<title>a1-&gt;a2</title>
<path fill="none" stroke="black" stroke-dasharray="5,2" d="M72,-960.89C72,-958.79 72,-926.14 72,-924.1"/>
</g>
<!-- a1&#45;&gt;b1 -->
<g id="edge79" class="edge">
<title>a1-&gt;b1</title>
<path fill="none" stroke="black" d="M72.16,-961.72C77.77,-961.72 232.46,-961.72 276.44,-961.72"/>
<polygon fill="black" stroke="black" points="276.33,-965.22 286.33,-961.72 276.33,-958.22 276.33,-965.22"/>
<text text-anchor="middle" x="180" y="-968.92" font-family="Times,serif" font-size="14.00">instance_init</text>
</g>
<!-- a3 -->
<g id="node6" class="node">
<title>a3</title>
</g>
<!-- a2&#45;&gt;a3 -->
<g id="edge3" class="edge">
<title>a2-&gt;a3</title>
<path fill="none" stroke="black" stroke-dasharray="5,2" d="M72,-922.45C72,-920.35 72,-887.7 72,-885.66"/>
</g>
<!-- b2 -->
<g id="node31" class="node">
<title>b2</title>
</g>
<!-- a2&#45;&gt;b2 -->
<g id="edge80" class="edge">
<title>a2-&gt;b2</title>
<path fill="none" stroke="black" stroke-dasharray="5,2" d="M83.77,-923.28C151.71,-923.28 219.64,-923.28 287.58,-923.28"/>
<polygon fill="black" stroke="black" points="83.94,-919.78 73.94,-923.28 83.94,-926.78 83.94,-919.78"/>
</g>
<!-- a4 -->
<g id="node7" class="node">
<title>a4</title>
</g>
<!-- a3&#45;&gt;a4 -->
<g id="edge4" class="edge">
<title>a3-&gt;a4</title>
<path fill="none" stroke="black" stroke-dasharray="5,2" d="M72,-884.01C72,-881.91 72,-849.26 72,-847.22"/>
</g>
<!-- b3 -->
<g id="node32" class="node">
<title>b3</title>
</g>
<!-- a3&#45;&gt;b3 -->
<g id="edge82" class="edge">
<title>a3-&gt;b3</title>
<path fill="none" stroke="black" d="M72.16,-884.84C77.77,-884.84 232.46,-884.84 276.44,-884.84"/>
<polygon fill="black" stroke="black" points="276.33,-888.34 286.33,-884.84 276.33,-881.34 276.33,-888.34"/>
<text text-anchor="middle" x="180" y="-892.04" font-family="Times,serif" font-size="14.00">get/set_property</text>
</g>
<!-- a5 -->
<g id="node8" class="node">
<title>a5</title>
</g>
<!-- a4&#45;&gt;a5 -->
<g id="edge5" class="edge">
<title>a4-&gt;a5</title>
<path fill="none" stroke="black" stroke-dasharray="5,2" d="M72,-845.57C72,-843.47 72,-810.82 72,-808.78"/>
</g>
<!-- b4 -->
<g id="node33" class="node">
<title>b4</title>
</g>
<!-- a4&#45;&gt;b4 -->
<g id="edge84" class="edge">
<title>a4-&gt;b4</title>
<path fill="none" stroke="black" stroke-dasharray="5,2" d="M83.77,-846.4C151.71,-846.4 219.64,-846.4 287.58,-846.4"/>
<polygon fill="black" stroke="black" points="83.94,-842.9 73.94,-846.4 83.94,-849.9 83.94,-842.9"/>
</g>
<!-- a6 -->
<g id="node9" class="node">
<title>a6</title>
</g>
<!-- a5&#45;&gt;a6 -->
<g id="edge6" class="edge">
<title>a5-&gt;a6</title>
<path fill="none" stroke="black" stroke-dasharray="5,2" d="M72,-807.13C72,-805.03 72,-772.38 72,-770.34"/>
</g>
<!-- b5 -->
<g id="node34" class="node">
<title>b5</title>
</g>
<!-- a5&#45;&gt;b5 -->
<g id="edge85" class="edge">
<title>a5-&gt;b5</title>
<path fill="none" stroke="black" d="M72.16,-807.96C77.77,-807.96 232.46,-807.96 276.44,-807.96"/>
<polygon fill="black" stroke="black" points="276.33,-811.46 286.33,-807.96 276.33,-804.46 276.33,-811.46"/>
<text text-anchor="middle" x="180" y="-815.16" font-family="Times,serif" font-size="14.00">start</text>
</g>
<!-- a7 -->
<g id="node10" class="node">
<title>a7</title>
</g>
<!-- a6&#45;&gt;a7 -->
<g id="edge7" class="edge">
<title>a6-&gt;a7</title>
<path fill="none" stroke="black" stroke-dasharray="5,2" d="M72,-768.69C72,-766.59 72,-733.94 72,-731.9"/>
</g>
<!-- b6 -->
<g id="node35" class="node">
<title>b6</title>
</g>
<!-- a6&#45;&gt;b6 -->
<!-- a8 -->
<g id="node11" class="node">
<title>a8</title>
</g>
<!-- a7&#45;&gt;a8 -->
<g id="edge8" class="edge">
<title>a7-&gt;a8</title>
<path fill="none" stroke="black" stroke-dasharray="5,2" d="M72,-730.25C72,-728.15 72,-695.5 72,-693.46"/>
</g>
<!-- b7 -->
<g id="node36" class="node">
<title>b7</title>
</g>
<!-- a7&#45;&gt;b7 -->
<!-- a9 -->
<g id="node12" class="node">
<title>a9</title>
</g>
<!-- a8&#45;&gt;a9 -->
<g id="edge9" class="edge">
<title>a8-&gt;a9</title>
<path fill="none" stroke="black" stroke-dasharray="5,2" d="M72,-691.81C72,-689.71 72,-657.06 72,-655.02"/>
</g>
<!-- b8 -->
<g id="node37" class="node">
<title>b8</title>
</g>
<!-- a8&#45;&gt;b8 -->
<g id="edge91" class="edge">
<title>a8-&gt;b8</title>
<path fill="none" stroke="black" stroke-dasharray="5,2" d="M83.77,-692.64C151.71,-692.64 219.64,-692.64 287.58,-692.64"/>
<polygon fill="black" stroke="black" points="83.94,-689.14 73.94,-692.64 83.94,-696.14 83.94,-689.14"/>
</g>
<!-- a10 -->
<g id="node13" class="node">
<title>a10</title>
</g>
<!-- a9&#45;&gt;a10 -->
<g id="edge10" class="edge">
<title>a9-&gt;a10</title>
<path fill="none" stroke="black" stroke-dasharray="5,2" d="M72,-653.37C72,-651.27 72,-618.62 72,-616.58"/>
</g>
<!-- b9 -->
<g id="node38" class="node">
<title>b9</title>
</g>
<!-- a9&#45;&gt;b9 -->
<g id="edge93" class="edge">
<title>a9-&gt;b9</title>
<path fill="none" stroke="black" d="M72.16,-654.2C77.77,-654.2 232.46,-654.2 276.44,-654.2"/>
<polygon fill="black" stroke="black" points="276.33,-657.7 286.33,-654.2 276.33,-650.7 276.33,-657.7"/>
<text text-anchor="middle" x="180" y="-661.4" font-family="Times,serif" font-size="14.00">transform_caps</text>
</g>
<!-- a11 -->
<g id="node14" class="node">
<title>a11</title>
</g>
<!-- a10&#45;&gt;a11 -->
<g id="edge11" class="edge">
<title>a10-&gt;a11</title>
<path fill="none" stroke="black" stroke-dasharray="5,2" d="M72,-614.93C72,-612.83 72,-580.18 72,-578.14"/>
</g>
<!-- b10 -->
<g id="node39" class="node">
<title>b10</title>
</g>
<!-- a10&#45;&gt;b10 -->
<!-- a12 -->
<g id="node15" class="node">
<title>a12</title>
</g>
<!-- a11&#45;&gt;a12 -->
<g id="edge12" class="edge">
<title>a11-&gt;a12</title>
<path fill="none" stroke="black" stroke-dasharray="5,2" d="M72,-576.49C72,-574.39 72,-541.74 72,-539.7"/>
</g>
<!-- b11 -->
<g id="node40" class="node">
<title>b11</title>
</g>
<!-- a11&#45;&gt;b11 -->
<!-- a13 -->
<g id="node16" class="node">
<title>a13</title>
</g>
<!-- a12&#45;&gt;a13 -->
<g id="edge13" class="edge">
<title>a12-&gt;a13</title>
<path fill="none" stroke="black" stroke-dasharray="5,2" d="M72,-538.05C72,-535.95 72,-503.3 72,-501.26"/>
</g>
<!-- b12 -->
<g id="node41" class="node">
<title>b12</title>
</g>
<!-- a12&#45;&gt;b12 -->
<!-- a14 -->
<g id="node17" class="node">
<title>a14</title>
</g>
<!-- a13&#45;&gt;a14 -->
<g id="edge14" class="edge">
<title>a13-&gt;a14</title>
<path fill="none" stroke="black" stroke-dasharray="5,2" d="M72,-499.61C72,-497.51 72,-464.86 72,-462.82"/>
</g>
<!-- b13 -->
<g id="node42" class="node">
<title>b13</title>
</g>
<!-- a13&#45;&gt;b13 -->
<!-- a15 -->
<g id="node18" class="node">
<title>a15</title>
</g>
<!-- a14&#45;&gt;a15 -->
<g id="edge15" class="edge">
<title>a14-&gt;a15</title>
<path fill="none" stroke="black" stroke-dasharray="5,2" d="M72,-461.17C72,-459.07 72,-426.42 72,-424.38"/>
</g>
<!-- b14 -->
<g id="node43" class="node">
<title>b14</title>
</g>
<!-- a14&#45;&gt;b14 -->
<g id="edge103" class="edge">
<title>a14-&gt;b14</title>
<path fill="none" stroke="black" stroke-dasharray="5,2" d="M83.77,-462C151.71,-462 219.64,-462 287.58,-462"/>
<polygon fill="black" stroke="black" points="83.94,-458.5 73.94,-462 83.94,-465.5 83.94,-458.5"/>
</g>
<!-- a16 -->
<g id="node19" class="node">
<title>a16</title>
</g>
<!-- a15&#45;&gt;a16 -->
<g id="edge16" class="edge">
<title>a15-&gt;a16</title>
<path fill="none" stroke="black" stroke-dasharray="5,2" d="M72,-422.73C72,-420.63 72,-387.98 72,-385.94"/>
</g>
<!-- b15 -->
<g id="node44" class="node">
<title>b15</title>
</g>
<!-- a15&#45;&gt;b15 -->
<g id="edge105" class="edge">
<title>a15-&gt;b15</title>
<path fill="none" stroke="black" d="M72.16,-423.56C77.77,-423.56 232.46,-423.56 276.44,-423.56"/>
<polygon fill="black" stroke="black" points="276.33,-427.06 286.33,-423.56 276.33,-420.06 276.33,-427.06"/>
<text text-anchor="middle" x="180" y="-430.76" font-family="Times,serif" font-size="14.00">set_caps</text>
</g>
<!-- a17 -->
<g id="node20" class="node">
<title>a17</title>
</g>
<!-- a16&#45;&gt;a17 -->
<g id="edge17" class="edge">
<title>a16-&gt;a17</title>
<path fill="none" stroke="black" stroke-dasharray="5,2" d="M72,-384.29C72,-382.19 72,-349.54 72,-347.5"/>
</g>
<!-- b16 -->
<g id="node45" class="node">
<title>b16</title>
</g>
<!-- a16&#45;&gt;b16 -->
<!-- a18 -->
<g id="node21" class="node">
<title>a18</title>
</g>
<!-- a17&#45;&gt;a18 -->
<g id="edge18" class="edge">
<title>a17-&gt;a18</title>
<path fill="none" stroke="black" stroke-dasharray="5,2" d="M72,-345.85C72,-343.75 72,-311.1 72,-309.06"/>
</g>
<!-- b17 -->
<g id="node46" class="node">
<title>b17</title>
</g>
<!-- a17&#45;&gt;b17 -->
<!-- a19 -->
<g id="node22" class="node">
<title>a19</title>
</g>
<!-- a18&#45;&gt;a19 -->
<g id="edge19" class="edge">
<title>a18-&gt;a19</title>
<path fill="none" stroke="black" stroke-dasharray="5,2" d="M72,-307.41C72,-305.31 72,-272.66 72,-270.62"/>
</g>
<!-- b18 -->
<g id="node47" class="node">
<title>b18</title>
</g>
<!-- a18&#45;&gt;b18 -->
<!-- a20 -->
<g id="node23" class="node">
<title>a20</title>
</g>
<!-- a19&#45;&gt;a20 -->
<g id="edge20" class="edge">
<title>a19-&gt;a20</title>
<path fill="none" stroke="black" stroke-dasharray="5,2" d="M72,-268.97C72,-266.87 72,-234.22 72,-232.18"/>
</g>
<!-- b19 -->
<g id="node48" class="node">
<title>b19</title>
</g>
<!-- a19&#45;&gt;b19 -->
<!-- a21 -->
<g id="node24" class="node">
<title>a21</title>
</g>
<!-- a20&#45;&gt;a21 -->
<g id="edge21" class="edge">
<title>a20-&gt;a21</title>
<path fill="none" stroke="black" stroke-dasharray="5,2" d="M72,-230.53C72,-228.43 72,-195.78 72,-193.74"/>
</g>
<!-- b20 -->
<g id="node49" class="node">
<title>b20</title>
</g>
<!-- a20&#45;&gt;b20 -->
<!-- a22 -->
<g id="node25" class="node">
<title>a22</title>
</g>
<!-- a21&#45;&gt;a22 -->
<g id="edge22" class="edge">
<title>a21-&gt;a22</title>
<path fill="none" stroke="black" stroke-dasharray="5,2" d="M72,-192.09C72,-189.99 72,-157.34 72,-155.3"/>
</g>
<!-- b21 -->
<g id="node50" class="node">
<title>b21</title>
</g>
<!-- a21&#45;&gt;b21 -->
<!-- a23 -->
<g id="node26" class="node">
<title>a23</title>
</g>
<!-- a22&#45;&gt;a23 -->
<g id="edge23" class="edge">
<title>a22-&gt;a23</title>
<path fill="none" stroke="black" stroke-dasharray="5,2" d="M72,-153.65C72,-151.55 72,-118.9 72,-116.86"/>
</g>
<!-- b22 -->
<g id="node51" class="node">
<title>b22</title>
</g>
<!-- a22&#45;&gt;b22 -->
<g id="edge119" class="edge">
<title>a22-&gt;b22</title>
<path fill="none" stroke="black" stroke-dasharray="5,2" d="M83.77,-154.48C151.71,-154.48 219.64,-154.48 287.58,-154.48"/>
<polygon fill="black" stroke="black" points="83.94,-150.98 73.94,-154.48 83.94,-157.98 83.94,-150.98"/>
</g>
<!-- a24 -->
<g id="node27" class="node">
<title>a24</title>
</g>
<!-- a23&#45;&gt;a24 -->
<g id="edge24" class="edge">
<title>a23-&gt;a24</title>
<path fill="none" stroke="black" stroke-dasharray="5,2" d="M72,-115.21C72,-113.11 72,-80.46 72,-78.42"/>
</g>
<!-- b23 -->
<g id="node52" class="node">
<title>b23</title>
</g>
<!-- a23&#45;&gt;b23 -->
<g id="edge121" class="edge">
<title>a23-&gt;b23</title>
<path fill="none" stroke="black" d="M72.16,-116.04C77.77,-116.04 232.46,-116.04 276.44,-116.04"/>
<polygon fill="black" stroke="black" points="276.33,-119.54 286.33,-116.04 276.33,-112.54 276.33,-119.54"/>
<text text-anchor="middle" x="180" y="-123.24" font-family="Times,serif" font-size="14.00">generate_output</text>
</g>
<!-- a25 -->
<g id="node28" class="node">
<title>a25</title>
</g>
<!-- a24&#45;&gt;a25 -->
<g id="edge25" class="edge">
<title>a24-&gt;a25</title>
<path fill="none" stroke="black" stroke-dasharray="5,2" d="M72,-76.77C72,-74.67 72,-42.02 72,-39.98"/>
</g>
<!-- b24 -->
<g id="node53" class="node">
<title>b24</title>
</g>
<!-- a24&#45;&gt;b24 -->
<!-- a26 -->
<g id="node29" class="node">
<title>a26</title>
</g>
<!-- a25&#45;&gt;a26 -->
<g id="edge26" class="edge">
<title>a25-&gt;a26</title>
<path fill="none" stroke="black" stroke-dasharray="5,2" d="M72,-38.33C72,-36.23 72,-3.58 72,-1.54"/>
</g>
<!-- b25 -->
<g id="node54" class="node">
<title>b25</title>
</g>
<!-- a25&#45;&gt;b25 -->
<!-- b26 -->
<g id="node55" class="node">
<title>b26</title>
</g>
<!-- a26&#45;&gt;b26 -->
<g id="edge127" class="edge">
<title>a26-&gt;b26</title>
<path fill="none" stroke="black" stroke-dasharray="5,2" d="M83.77,-0.72C151.71,-0.72 219.64,-0.72 287.58,-0.72"/>
<polygon fill="black" stroke="black" points="83.94,2.78 73.94,-0.72 83.94,-4.22 83.94,2.78"/>
</g>
<!-- b1&#45;&gt;b2 -->
<g id="edge28" class="edge">
<title>b1-&gt;b2</title>
<path fill="none" stroke="black" stroke-dasharray="5,2" d="M288,-960.89C288,-958.79 288,-926.14 288,-924.1"/>
</g>
<!-- b2&#45;&gt;b3 -->
<g id="edge29" class="edge">
<title>b2-&gt;b3</title>
<path fill="none" stroke="black" stroke-dasharray="5,2" d="M288,-922.45C288,-920.35 288,-887.7 288,-885.66"/>
</g>
<!-- c2 -->
<g id="node57" class="node">
<title>c2</title>
</g>
<!-- b2&#45;&gt;c2 -->
<!-- b3&#45;&gt;b4 -->
<g id="edge30" class="edge">
<title>b3-&gt;b4</title>
<path fill="none" stroke="black" stroke-dasharray="5,2" d="M288,-884.01C288,-881.91 288,-849.26 288,-847.22"/>
</g>
<!-- c3 -->
<g id="node58" class="node">
<title>c3</title>
</g>
<!-- b3&#45;&gt;c3 -->
<!-- b4&#45;&gt;b5 -->
<g id="edge31" class="edge">
<title>b4-&gt;b5</title>
<path fill="none" stroke="black" stroke-dasharray="5,2" d="M288,-845.57C288,-843.47 288,-810.82 288,-808.78"/>
</g>
<!-- b5&#45;&gt;b6 -->
<g id="edge32" class="edge">
<title>b5-&gt;b6</title>
<path fill="none" stroke="black" stroke-dasharray="5,2" d="M288,-807.13C288,-805.03 288,-772.38 288,-770.34"/>
</g>
<!-- c5 -->
<g id="node60" class="node">
<title>c5</title>
</g>
<!-- b5&#45;&gt;c5 -->
<!-- b6&#45;&gt;b7 -->
<g id="edge33" class="edge">
<title>b6-&gt;b7</title>
<path fill="none" stroke="black" stroke-dasharray="5,2" d="M288,-768.69C288,-766.59 288,-733.94 288,-731.9"/>
</g>
<!-- c6 -->
<g id="node61" class="node">
<title>c6</title>
</g>
<!-- b6&#45;&gt;c6 -->
<g id="edge88" class="edge">
<title>b6-&gt;c6</title>
<path fill="none" stroke="black" d="M288.18,-769.52C294.9,-769.52 482.38,-769.52 531.38,-769.52"/>
<polygon fill="black" stroke="black" points="531.31,-773.02 541.31,-769.52 531.31,-766.02 531.31,-773.02"/>
<text text-anchor="middle" x="415.5" y="-776.72" font-family="Times,serif" font-size="14.00">ElementDesc::create</text>
</g>
<!-- b7&#45;&gt;b8 -->
<g id="edge34" class="edge">
<title>b7-&gt;b8</title>
<path fill="none" stroke="black" stroke-dasharray="5,2" d="M288,-730.25C288,-728.15 288,-695.5 288,-693.46"/>
</g>
<!-- c7 -->
<g id="node62" class="node">
<title>c7</title>
</g>
<!-- b7&#45;&gt;c7 -->
<g id="edge90" class="edge">
<title>b7-&gt;c7</title>
<path fill="none" stroke="black" stroke-dasharray="5,2" d="M299.91,-731.08C380.77,-731.08 461.64,-731.08 542.5,-731.08"/>
<polygon fill="black" stroke="black" points="300.01,-727.58 290.01,-731.08 300.01,-734.58 300.01,-727.58"/>
</g>
<!-- b8&#45;&gt;b9 -->
<g id="edge35" class="edge">
<title>b8-&gt;b9</title>
<path fill="none" stroke="black" stroke-dasharray="5,2" d="M288,-691.81C288,-689.71 288,-657.06 288,-655.02"/>
</g>
<!-- c8 -->
<g id="node63" class="node">
<title>c8</title>
</g>
<!-- b8&#45;&gt;c8 -->
<!-- b9&#45;&gt;b10 -->
<g id="edge36" class="edge">
<title>b9-&gt;b10</title>
<path fill="none" stroke="black" stroke-dasharray="5,2" d="M288,-653.37C288,-651.27 288,-618.62 288,-616.58"/>
</g>
<!-- c9 -->
<g id="node64" class="node">
<title>c9</title>
</g>
<!-- b9&#45;&gt;c9 -->
<!-- b10&#45;&gt;b11 -->
<g id="edge37" class="edge">
<title>b10-&gt;b11</title>
<path fill="none" stroke="black" stroke-dasharray="5,2" d="M288,-614.93C288,-612.83 288,-580.18 288,-578.14"/>
</g>
<!-- c10 -->
<g id="node65" class="node">
<title>c10</title>
</g>
<!-- b10&#45;&gt;c10 -->
<g id="edge96" class="edge">
<title>b10-&gt;c10</title>
<path fill="none" stroke="black" d="M288.18,-615.76C294.9,-615.76 482.38,-615.76 531.38,-615.76"/>
<polygon fill="black" stroke="black" points="531.31,-619.26 541.31,-615.76 531.31,-612.26 531.31,-619.26"/>
<text text-anchor="middle" x="415.5" y="-622.96" font-family="Times,serif" font-size="14.00">set_output_info / set_input_info</text>
</g>
<!-- b11&#45;&gt;b12 -->
<g id="edge38" class="edge">
<title>b11-&gt;b12</title>
<path fill="none" stroke="black" stroke-dasharray="5,2" d="M288,-576.49C288,-574.39 288,-541.74 288,-539.7"/>
</g>
<!-- c11 -->
<g id="node66" class="node">
<title>c11</title>
</g>
<!-- b11&#45;&gt;c11 -->
<g id="edge98" class="edge">
<title>b11-&gt;c11</title>
<path fill="none" stroke="black" stroke-dasharray="5,2" d="M299.91,-577.32C380.77,-577.32 461.64,-577.32 542.5,-577.32"/>
<polygon fill="black" stroke="black" points="300.01,-573.82 290.01,-577.32 300.01,-580.82 300.01,-573.82"/>
</g>
<!-- b12&#45;&gt;b13 -->
<g id="edge39" class="edge">
<title>b12-&gt;b13</title>
<path fill="none" stroke="black" stroke-dasharray="5,2" d="M288,-538.05C288,-535.95 288,-503.3 288,-501.26"/>
</g>
<!-- c12 -->
<g id="node67" class="node">
<title>c12</title>
</g>
<!-- b12&#45;&gt;c12 -->
<g id="edge100" class="edge">
<title>b12-&gt;c12</title>
<path fill="none" stroke="black" d="M288.18,-538.88C294.9,-538.88 482.38,-538.88 531.38,-538.88"/>
<polygon fill="black" stroke="black" points="531.31,-542.38 541.31,-538.88 531.31,-535.38 531.31,-542.38"/>
<text text-anchor="middle" x="415.5" y="-546.08" font-family="Times,serif" font-size="14.00">get_input_info / get_output_info</text>
</g>
<!-- b13&#45;&gt;b14 -->
<g id="edge40" class="edge">
<title>b13-&gt;b14</title>
<path fill="none" stroke="black" stroke-dasharray="5,2" d="M288,-499.61C288,-497.51 288,-464.86 288,-462.82"/>
</g>
<!-- c13 -->
<g id="node68" class="node">
<title>c13</title>
</g>
<!-- b13&#45;&gt;c13 -->
<g id="edge102" class="edge">
<title>b13-&gt;c13</title>
<path fill="none" stroke="black" stroke-dasharray="5,2" d="M299.91,-500.44C380.77,-500.44 461.64,-500.44 542.5,-500.44"/>
<polygon fill="black" stroke="black" points="300.01,-496.94 290.01,-500.44 300.01,-503.94 300.01,-496.94"/>
</g>
<!-- b14&#45;&gt;b15 -->
<g id="edge41" class="edge">
<title>b14-&gt;b15</title>
<path fill="none" stroke="black" stroke-dasharray="5,2" d="M288,-461.17C288,-459.07 288,-426.42 288,-424.38"/>
</g>
<!-- c14 -->
<g id="node69" class="node">
<title>c14</title>
</g>
<!-- b14&#45;&gt;c14 -->
<!-- b15&#45;&gt;b16 -->
<g id="edge42" class="edge">
<title>b15-&gt;b16</title>
<path fill="none" stroke="black" stroke-dasharray="5,2" d="M288,-422.73C288,-420.63 288,-387.98 288,-385.94"/>
</g>
<!-- c15 -->
<g id="node70" class="node">
<title>c15</title>
</g>
<!-- b15&#45;&gt;c15 -->
<!-- b16&#45;&gt;b17 -->
<g id="edge43" class="edge">
<title>b16-&gt;b17</title>
<path fill="none" stroke="black" stroke-dasharray="5,2" d="M288,-384.29C288,-382.19 288,-349.54 288,-347.5"/>
</g>
<!-- c16 -->
<g id="node71" class="node">
<title>c16</title>
</g>
<!-- b16&#45;&gt;c16 -->
<g id="edge108" class="edge">
<title>b16-&gt;c16</title>
<path fill="none" stroke="black" d="M288.18,-385.12C294.9,-385.12 482.38,-385.12 531.38,-385.12"/>
<polygon fill="black" stroke="black" points="531.31,-388.62 541.31,-385.12 531.31,-381.62 531.31,-388.62"/>
<text text-anchor="middle" x="415.5" y="-392.32" font-family="Times,serif" font-size="14.00">set_input_info</text>
</g>
<!-- b17&#45;&gt;b18 -->
<g id="edge44" class="edge">
<title>b17-&gt;b18</title>
<path fill="none" stroke="black" stroke-dasharray="5,2" d="M288,-345.85C288,-343.75 288,-311.1 288,-309.06"/>
</g>
<!-- c17 -->
<g id="node72" class="node">
<title>c17</title>
</g>
<!-- b17&#45;&gt;c17 -->
<g id="edge110" class="edge">
<title>b17-&gt;c17</title>
<path fill="none" stroke="black" stroke-dasharray="5,2" d="M299.91,-346.68C380.77,-346.68 461.64,-346.68 542.5,-346.68"/>
<polygon fill="black" stroke="black" points="300.01,-343.18 290.01,-346.68 300.01,-350.18 300.01,-343.18"/>
</g>
<!-- b18&#45;&gt;b19 -->
<g id="edge45" class="edge">
<title>b18-&gt;b19</title>
<path fill="none" stroke="black" stroke-dasharray="5,2" d="M288,-307.41C288,-305.31 288,-272.66 288,-270.62"/>
</g>
<!-- c18 -->
<g id="node73" class="node">
<title>c18</title>
</g>
<!-- b18&#45;&gt;c18 -->
<g id="edge112" class="edge">
<title>b18-&gt;c18</title>
<path fill="none" stroke="black" d="M288.18,-308.24C294.9,-308.24 482.38,-308.24 531.38,-308.24"/>
<polygon fill="black" stroke="black" points="531.31,-311.74 541.31,-308.24 531.31,-304.74 531.31,-311.74"/>
<text text-anchor="middle" x="415.5" y="-315.44" font-family="Times,serif" font-size="14.00">set_output_info</text>
</g>
<!-- b19&#45;&gt;b20 -->
<g id="edge46" class="edge">
<title>b19-&gt;b20</title>
<path fill="none" stroke="black" stroke-dasharray="5,2" d="M288,-268.97C288,-266.87 288,-234.22 288,-232.18"/>
</g>
<!-- c19 -->
<g id="node74" class="node">
<title>c19</title>
</g>
<!-- b19&#45;&gt;c19 -->
<g id="edge114" class="edge">
<title>b19-&gt;c19</title>
<path fill="none" stroke="black" stroke-dasharray="5,2" d="M299.91,-269.8C380.77,-269.8 461.64,-269.8 542.5,-269.8"/>
<polygon fill="black" stroke="black" points="300.01,-266.3 290.01,-269.8 300.01,-273.3 300.01,-266.3"/>
</g>
<!-- b20&#45;&gt;b21 -->
<g id="edge47" class="edge">
<title>b20-&gt;b21</title>
<path fill="none" stroke="black" stroke-dasharray="5,2" d="M288,-230.53C288,-228.43 288,-195.78 288,-193.74"/>
</g>
<!-- c20 -->
<g id="node75" class="node">
<title>c20</title>
</g>
<!-- b20&#45;&gt;c20 -->
<g id="edge116" class="edge">
<title>b20-&gt;c20</title>
<path fill="none" stroke="black" d="M288.18,-231.36C294.9,-231.36 482.38,-231.36 531.38,-231.36"/>
<polygon fill="black" stroke="black" points="531.31,-234.86 541.31,-231.36 531.31,-227.86 531.31,-234.86"/>
<text text-anchor="middle" x="415.5" y="-238.56" font-family="Times,serif" font-size="14.00">init</text>
</g>
<!-- b21&#45;&gt;b22 -->
<g id="edge48" class="edge">
<title>b21-&gt;b22</title>
<path fill="none" stroke="black" stroke-dasharray="5,2" d="M288,-192.09C288,-189.99 288,-157.34 288,-155.3"/>
</g>
<!-- c21 -->
<g id="node76" class="node">
<title>c21</title>
</g>
<!-- b21&#45;&gt;c21 -->
<g id="edge118" class="edge">
<title>b21-&gt;c21</title>
<path fill="none" stroke="black" stroke-dasharray="5,2" d="M299.91,-192.92C380.77,-192.92 461.64,-192.92 542.5,-192.92"/>
<polygon fill="black" stroke="black" points="300.01,-189.42 290.01,-192.92 300.01,-196.42 300.01,-189.42"/>
</g>
<!-- b22&#45;&gt;b23 -->
<g id="edge49" class="edge">
<title>b22-&gt;b23</title>
<path fill="none" stroke="black" stroke-dasharray="5,2" d="M288,-153.65C288,-151.55 288,-118.9 288,-116.86"/>
</g>
<!-- c22 -->
<g id="node77" class="node">
<title>c22</title>
</g>
<!-- b22&#45;&gt;c22 -->
<!-- b23&#45;&gt;b24 -->
<g id="edge50" class="edge">
<title>b23-&gt;b24</title>
<path fill="none" stroke="black" stroke-dasharray="5,2" d="M288,-115.21C288,-113.11 288,-80.46 288,-78.42"/>
</g>
<!-- c23 -->
<g id="node78" class="node">
<title>c23</title>
</g>
<!-- b23&#45;&gt;c23 -->
<!-- b24&#45;&gt;b25 -->
<g id="edge51" class="edge">
<title>b24-&gt;b25</title>
<path fill="none" stroke="black" stroke-dasharray="5,2" d="M288,-76.77C288,-74.67 288,-42.02 288,-39.98"/>
</g>
<!-- c24 -->
<g id="node79" class="node">
<title>c24</title>
</g>
<!-- b24&#45;&gt;c24 -->
<g id="edge124" class="edge">
<title>b24-&gt;c24</title>
<path fill="none" stroke="black" d="M288.18,-77.6C294.9,-77.6 482.38,-77.6 531.38,-77.6"/>
<polygon fill="black" stroke="black" points="531.31,-81.1 541.31,-77.6 531.31,-74.1 531.31,-81.1"/>
<text text-anchor="middle" x="415.5" y="-84.8" font-family="Times,serif" font-size="14.00">process</text>
</g>
<!-- b25&#45;&gt;b26 -->
<g id="edge52" class="edge">
<title>b25-&gt;b26</title>
<path fill="none" stroke="black" stroke-dasharray="5,2" d="M288,-38.33C288,-36.23 288,-3.58 288,-1.54"/>
</g>
<!-- c25 -->
<g id="node80" class="node">
<title>c25</title>
</g>
<!-- b25&#45;&gt;c25 -->
<g id="edge126" class="edge">
<title>b25-&gt;c25</title>
<path fill="none" stroke="black" stroke-dasharray="5,2" d="M299.91,-39.16C380.77,-39.16 461.64,-39.16 542.5,-39.16"/>
<polygon fill="black" stroke="black" points="300.01,-35.66 290.01,-39.16 300.01,-42.66 300.01,-35.66"/>
</g>
<!-- c26 -->
<g id="node81" class="node">
<title>c26</title>
</g>
<!-- b26&#45;&gt;c26 -->
<!-- c1&#45;&gt;c2 -->
<g id="edge54" class="edge">
<title>c1-&gt;c2</title>
<path fill="none" stroke="black" stroke-dasharray="5,2" d="M543,-960.89C543,-958.79 543,-926.14 543,-924.1"/>
</g>
<!-- c2&#45;&gt;c3 -->
<g id="edge55" class="edge">
<title>c2-&gt;c3</title>
<path fill="none" stroke="black" stroke-dasharray="5,2" d="M543,-922.45C543,-920.35 543,-887.7 543,-885.66"/>
</g>
<!-- c4 -->
<g id="node59" class="node">
<title>c4</title>
</g>
<!-- c3&#45;&gt;c4 -->
<g id="edge56" class="edge">
<title>c3-&gt;c4</title>
<path fill="none" stroke="black" stroke-dasharray="5,2" d="M543,-884.01C543,-881.91 543,-849.26 543,-847.22"/>
</g>
<!-- c4&#45;&gt;c5 -->
<g id="edge57" class="edge">
<title>c4-&gt;c5</title>
<path fill="none" stroke="black" stroke-dasharray="5,2" d="M543,-845.57C543,-843.47 543,-810.82 543,-808.78"/>
</g>
<!-- c5&#45;&gt;c6 -->
<g id="edge58" class="edge">
<title>c5-&gt;c6</title>
<path fill="none" stroke="black" stroke-dasharray="5,2" d="M543,-807.13C543,-805.03 543,-772.38 543,-770.34"/>
</g>
<!-- c6&#45;&gt;c7 -->
<g id="edge59" class="edge">
<title>c6-&gt;c7</title>
<path fill="none" stroke="black" stroke-dasharray="5,2" d="M543,-768.69C543,-766.59 543,-733.94 543,-731.9"/>
</g>
<!-- c7&#45;&gt;c8 -->
<g id="edge60" class="edge">
<title>c7-&gt;c8</title>
<path fill="none" stroke="black" stroke-dasharray="5,2" d="M543,-730.25C543,-728.15 543,-695.5 543,-693.46"/>
</g>
<!-- c8&#45;&gt;c9 -->
<g id="edge61" class="edge">
<title>c8-&gt;c9</title>
<path fill="none" stroke="black" stroke-dasharray="5,2" d="M543,-691.81C543,-689.71 543,-657.06 543,-655.02"/>
</g>
<!-- c9&#45;&gt;c10 -->
<g id="edge62" class="edge">
<title>c9-&gt;c10</title>
<path fill="none" stroke="black" stroke-dasharray="5,2" d="M543,-653.37C543,-651.27 543,-618.62 543,-616.58"/>
</g>
<!-- c10&#45;&gt;c11 -->
<g id="edge63" class="edge">
<title>c10-&gt;c11</title>
<path fill="none" stroke="black" stroke-dasharray="5,2" d="M543,-614.93C543,-612.83 543,-580.18 543,-578.14"/>
</g>
<!-- c11&#45;&gt;c12 -->
<g id="edge64" class="edge">
<title>c11-&gt;c12</title>
<path fill="none" stroke="black" stroke-dasharray="5,2" d="M543,-576.49C543,-574.39 543,-541.74 543,-539.7"/>
</g>
<!-- c12&#45;&gt;c13 -->
<g id="edge65" class="edge">
<title>c12-&gt;c13</title>
<path fill="none" stroke="black" stroke-dasharray="5,2" d="M543,-538.05C543,-535.95 543,-503.3 543,-501.26"/>
</g>
<!-- c13&#45;&gt;c14 -->
<g id="edge66" class="edge">
<title>c13-&gt;c14</title>
<path fill="none" stroke="black" stroke-dasharray="5,2" d="M543,-499.61C543,-497.51 543,-464.86 543,-462.82"/>
</g>
<!-- c14&#45;&gt;c15 -->
<g id="edge67" class="edge">
<title>c14-&gt;c15</title>
<path fill="none" stroke="black" stroke-dasharray="5,2" d="M543,-461.17C543,-459.07 543,-426.42 543,-424.38"/>
</g>
<!-- c15&#45;&gt;c16 -->
<g id="edge68" class="edge">
<title>c15-&gt;c16</title>
<path fill="none" stroke="black" stroke-dasharray="5,2" d="M543,-422.73C543,-420.63 543,-387.98 543,-385.94"/>
</g>
<!-- c16&#45;&gt;c17 -->
<g id="edge69" class="edge">
<title>c16-&gt;c17</title>
<path fill="none" stroke="black" stroke-dasharray="5,2" d="M543,-384.29C543,-382.19 543,-349.54 543,-347.5"/>
</g>
<!-- c17&#45;&gt;c18 -->
<g id="edge70" class="edge">
<title>c17-&gt;c18</title>
<path fill="none" stroke="black" stroke-dasharray="5,2" d="M543,-345.85C543,-343.75 543,-311.1 543,-309.06"/>
</g>
<!-- c18&#45;&gt;c19 -->
<g id="edge71" class="edge">
<title>c18-&gt;c19</title>
<path fill="none" stroke="black" stroke-dasharray="5,2" d="M543,-307.41C543,-305.31 543,-272.66 543,-270.62"/>
</g>
<!-- c19&#45;&gt;c20 -->
<g id="edge72" class="edge">
<title>c19-&gt;c20</title>
<path fill="none" stroke="black" stroke-dasharray="5,2" d="M543,-268.97C543,-266.87 543,-234.22 543,-232.18"/>
</g>
<!-- c20&#45;&gt;c21 -->
<g id="edge73" class="edge">
<title>c20-&gt;c21</title>
<path fill="none" stroke="black" stroke-dasharray="5,2" d="M543,-230.53C543,-228.43 543,-195.78 543,-193.74"/>
</g>
<!-- c21&#45;&gt;c22 -->
<g id="edge74" class="edge">
<title>c21-&gt;c22</title>
<path fill="none" stroke="black" stroke-dasharray="5,2" d="M543,-192.09C543,-189.99 543,-157.34 543,-155.3"/>
</g>
<!-- c22&#45;&gt;c23 -->
<g id="edge75" class="edge">
<title>c22-&gt;c23</title>
<path fill="none" stroke="black" stroke-dasharray="5,2" d="M543,-153.65C543,-151.55 543,-118.9 543,-116.86"/>
</g>
<!-- c23&#45;&gt;c24 -->
<g id="edge76" class="edge">
<title>c23-&gt;c24</title>
<path fill="none" stroke="black" stroke-dasharray="5,2" d="M543,-115.21C543,-113.11 543,-80.46 543,-78.42"/>
</g>
<!-- c24&#45;&gt;c25 -->
<g id="edge77" class="edge">
<title>c24-&gt;c25</title>
<path fill="none" stroke="black" stroke-dasharray="5,2" d="M543,-76.77C543,-74.67 543,-42.02 543,-39.98"/>
</g>
<!-- c25&#45;&gt;c26 -->
<g id="edge78" class="edge">
<title>c25-&gt;c26</title>
<path fill="none" stroke="black" stroke-dasharray="5,2" d="M543,-38.33C543,-36.23 543,-3.58 543,-1.54"/>
</g>
</g>
</svg>