<svg xmlns="http://www.w3.org/2000/svg" xmlns:xlink="http://www.w3.org/1999/xlink" width="325pt" height="337pt" viewBox="0.00 0.00 324.60 337.00">
<g id="graph0" class="graph" transform="scale(1 1) rotate(0) translate(4 333)">
<polygon fill="white" stroke="none" points="-4,4 -4,-333 320.6,-333 320.6,4 -4,4"/>
<!-- Gst -->
<g id="node1" class="node">
<title>Gst</title>
<polygon fill="#b0e2ff" stroke="black" points="129.72,-292.5 129.72,-328.5 183.72,-328.5 183.72,-292.5 129.72,-292.5"/>
<text text-anchor="middle" x="156.44" y="-306.3" font-family="Times,serif" font-size="14.00">Gst</text>
</g>
<!-- CPU -->
<g id="node2" class="node">
<title>CPU</title>
<polygon fill="#b0e2ff" stroke="black" points="223.72,-73.5 223.72,-109.5 277.72,-109.5 277.72,-73.5 223.72,-73.5"/>
<text text-anchor="middle" x="250.33" y="-87.3" font-family="Times,serif" font-size="14.00">CPU</text>
</g>
<!-- Gst&#45;&gt;CPU -->
<g id="edge1" class="edge">
<title>Gst-&gt;CPU</title>
<path fill="none" stroke="black" d="M184.08,-306.67C214.31,-301.91 261.62,-289.29 283.72,-256 311.44,-214.24 286.59,-154.2 267.58,-119.7"/>
<polygon fill="black" stroke="black" points="270.7,-118.1 262.69,-111.17 264.63,-121.59 270.7,-118.1"/>
</g>
<!-- DMA -->
<g id="node3" class="node">
<title>DMA</title>
<polygon fill="#b0e2ff" stroke="black" points="102.72,-219.5 102.72,-255.5 156.72,-255.5 156.72,-219.5 102.72,-219.5"/>
<text text-anchor="middle" x="129.55" y="-233.3" font-family="Times,serif" font-size="14.00">DMA</text>
</g>
<!-- Gst&#45;&gt;DMA -->
<g id="edge2" class="edge">
<title>Gst-&gt;DMA</title>
<path fill="none" stroke="black" d="M150.18,-292.31C147.2,-284.46 143.59,-274.97 140.23,-266.16"/>
<polygon fill="black" stroke="black" points="143.56,-265.05 136.73,-256.94 137.01,-267.53 143.56,-265.05"/>
</g>
<!-- OpenCL -->
<g id="node4" class="node">
<title>OpenCL</title>
<polygon fill="#b0e2ff" stroke="black" points="20.61,-146.5 20.61,-182.5 84.82,-182.5 84.82,-146.5 20.61,-146.5"/>
<text text-anchor="middle" x="52.72" y="-160.3" font-family="Times,serif" font-size="14.00">OpenCL</text>
</g>
<!-- Gst&#45;&gt;OpenCL -->
<g id="edge3" class="edge">
<title>Gst-&gt;OpenCL</title>
<path fill="none" stroke="black" d="M131.36,-292.12C118.82,-282.57 104.17,-269.86 93.72,-256 79.44,-237.07 68.67,-212.37 61.77,-193.56"/>
<polygon fill="black" stroke="black" points="65.08,-192.42 58.47,-184.14 58.47,-194.74 65.08,-192.42"/>
</g>
<!-- VAAPI -->
<g id="node5" class="node">
<title>VAAPI</title>
<polygon fill="#b0e2ff" stroke="black" points="174.33,-146.5 174.33,-182.5 233.11,-182.5 233.11,-146.5 174.33,-146.5"/>
<text text-anchor="middle" x="203.72" y="-160.3" font-family="Times,serif" font-size="14.00">VAAPI</text>
</g>
<!-- Gst&#45;&gt;VAAPI -->
<g id="edge4" class="edge">
<title>Gst-&gt;VAAPI</title>
<path fill="none" stroke="black" d="M162.39,-292.13C170.36,-267.7 184.98,-222.9 194.52,-193.67"/>
<polygon fill="black" stroke="black" points="197.78,-194.96 197.56,-184.37 191.13,-192.79 197.78,-194.96"/>
</g>
<!-- OpenCV -->
<g id="node7" class="node">
<title>OpenCV</title>
<polygon fill="#b0e2ff" stroke="black" points="250.83,-0.5 250.83,-36.5 316.6,-36.5 316.6,-0.5 250.83,-0.5"/>
<text text-anchor="middle" x="283.72" y="-14.3" font-family="Times,serif" font-size="14.00">OpenCV</text>
</g>
<!-- CPU&#45;&gt;OpenCV -->
<g id="edge10" class="edge">
<title>CPU-&gt;OpenCV</title>
<path fill="none" stroke="black" d="M258.71,-73.31C262.39,-65.38 266.86,-55.76 271,-46.86"/>
<polygon fill="black" stroke="black" points="274.12,-48.44 275.16,-37.9 267.78,-45.49 274.12,-48.44"/>
</g>
<!-- OpenVino -->
<g id="node9" class="node">
<title>OpenVino</title>
<polygon fill="#b0e2ff" stroke="black" points="158.56,-0.5 158.56,-36.5 232.88,-36.5 232.88,-0.5 158.56,-0.5"/>
<text text-anchor="middle" x="195.72" y="-14.3" font-family="Times,serif" font-size="14.00">OpenVino</text>
</g>
<!-- CPU&#45;&gt;OpenVino -->
<g id="edge12" class="edge">
<title>CPU-&gt;OpenVino</title>
<path fill="none" stroke="black" d="M231.53,-73.31C224.24,-65.03 216.18,-54.91 209.47,-45.69"/>
<polygon fill="black" stroke="black" points="212.52,-43.95 203.92,-37.77 206.79,-47.97 212.52,-43.95"/>
</g>
<!-- DMA&#45;&gt;OpenCL -->
<g id="edge7" class="edge">
<title>DMA-&gt;OpenCL</title>
<path fill="none" stroke="black" d="M105.2,-219.31C94.93,-210.68 83.21,-200.06 73.38,-190.53"/>
<polygon fill="black" stroke="black" points="75.96,-188.16 66.4,-183.6 71.03,-193.13 75.96,-188.16"/>
</g>
<!-- DMA&#45;&gt;VAAPI -->
<g id="edge17" class="edge">
<title>DMA-&gt;VAAPI</title>
<path fill="none" stroke="black" d="M141.75,-219.31C149.95,-210.57 161,-199.78 171.54,-190.17"/>
<polygon fill="black" stroke="black" points="173.57,-193.05 178.7,-183.78 168.91,-187.83 173.57,-193.05"/>
</g>
<!-- USM -->
<g id="node6" class="node">
<title>USM</title>
<polygon fill="#b0e2ff" stroke="black" points="102.72,-146.5 102.72,-182.5 156.72,-182.5 156.72,-146.5 102.72,-146.5"/>
<text text-anchor="middle" x="129.39" y="-160.3" font-family="Times,serif" font-size="14.00">USM</text>
</g>
<!-- DMA&#45;&gt;USM -->
<g id="edge5" class="edge">
<title>DMA-&gt;USM</title>
<path fill="none" stroke="black" d="M123.84,-219.31C123.04,-211.64 122.79,-202.39 123.09,-193.74"/>
<polygon fill="black" stroke="black" points="126.57,-194.25 123.75,-184.04 119.58,-193.78 126.57,-194.25"/>
</g>
<!-- OpenCL&#45;&gt;CPU -->
<g id="edge8" class="edge">
<title>OpenCL-&gt;CPU</title>
<path fill="none" stroke="black" d="M85.3,-149.33C88.14,-148.18 90.97,-147.05 93.72,-146 133.89,-130.61 180.64,-114.96 212.61,-104.6"/>
<polygon fill="black" stroke="black" points="213.38,-108.03 221.83,-101.63 211.23,-101.37 213.38,-108.03"/>
</g>
<!-- OpenCL&#45;&gt;DMA -->
<g id="edge9" class="edge">
<title>OpenCL-&gt;DMA</title>
<path fill="none" stroke="black" d="M77.34,-182.77C87.54,-191.36 99.17,-201.89 108.93,-211.35"/>
<polygon fill="black" stroke="black" points="106.32,-213.69 115.88,-218.25 111.25,-208.72 106.32,-213.69"/>
</g>
<!-- OpenCV_UMat -->
<g id="node8" class="node">
<title>OpenCV_UMat</title>
<polygon fill="#b0e2ff" stroke="black" points="0,-73.5 0,-109.5 105.43,-109.5 105.43,-73.5 0,-73.5"/>
<text text-anchor="middle" x="52.72" y="-87.3" font-family="Times,serif" font-size="14.00">OpenCV_UMat</text>
</g>
<!-- OpenCL&#45;&gt;OpenCV_UMat -->
<g id="edge11" class="edge">
<title>OpenCL-&gt;OpenCV_UMat</title>
<path fill="none" stroke="black" d="M52.72,-146.31C52.72,-138.73 52.72,-129.6 52.72,-121.04"/>
<polygon fill="black" stroke="black" points="56.22,-121.04 52.72,-111.04 49.22,-121.04 56.22,-121.04"/>
</g>
<!-- OpenCL&#45;&gt;OpenVino -->
<g id="edge13" class="edge">
<title>OpenCL-&gt;OpenVino</title>
<path fill="none" stroke="black" d="M74.27,-146.07C86.48,-135.92 101.83,-122.65 114.72,-110 135.82,-89.27 158.12,-64.08 173.97,-45.55"/>
<polygon fill="black" stroke="black" points="176.63,-47.82 180.43,-37.93 171.29,-43.29 176.63,-47.82"/>
</g>
<!-- VAAPI&#45;&gt;DMA -->
<g id="edge18" class="edge">
<title>VAAPI-&gt;DMA</title>
<path fill="none" stroke="black" d="M191.83,-182.53C183.61,-191.31 172.47,-202.19 161.85,-211.87"/>
<polygon fill="black" stroke="black" points="159.77,-209.04 154.64,-218.31 164.43,-214.26 159.77,-209.04"/>
</g>
<!-- VAAPI&#45;&gt;OpenVino -->
<g id="edge15" class="edge">
<title>VAAPI-&gt;OpenVino</title>
<path fill="none" stroke="black" d="M202.75,-146.13C201.4,-121.8 198.93,-77.3 197.3,-48.06"/>
<polygon fill="black" stroke="black" points="200.82,-48.23 196.77,-38.44 193.83,-48.62 200.82,-48.23"/>
</g>
<!-- USM&#45;&gt;CPU -->
<g id="edge16" class="edge">
<title>USM-&gt;CPU</title>
<path fill="none" stroke="black" d="M157.17,-147.39C173.88,-137.58 195.44,-124.93 213.65,-114.25"/>
<polygon fill="black" stroke="black" points="215.21,-117.39 222.06,-109.31 211.67,-111.36 215.21,-117.39"/>
</g>
<!-- USM&#45;&gt;DMA -->
<g id="edge6" class="edge">
<title>USM-&gt;DMA</title>
<path fill="none" stroke="black" d="M135.58,-182.53C136.39,-190.18 136.65,-199.42 136.35,-208.08"/>
<polygon fill="black" stroke="black" points="132.87,-207.59 135.7,-217.8 139.86,-208.06 132.87,-207.59"/>
</g>
<!-- OpenVino&#45;&gt;CPU -->
<g id="edge14" class="edge">
<title>OpenVino-&gt;CPU</title>
<path fill="none" stroke="black" d="M214.77,-36.53C222.05,-44.79 230.11,-54.9 236.84,-64.13"/>
<polygon fill="black" stroke="black" points="233.8,-65.9 242.41,-72.07 239.53,-61.88 233.8,-65.9"/>
</g>
<!-- FFmpeg -->
<g id="node10" class="node">
<title>FFmpeg</title>
<polygon fill="#b0e2ff" stroke="black" points="212.38,-219.5 212.38,-255.5 275.06,-255.5 275.06,-219.5 212.38,-219.5"/>
<text text-anchor="middle" x="243.72" y="-233.3" font-family="Times,serif" font-size="14.00">FFmpeg</text>
</g>
<!-- FFmpeg&#45;&gt;CPU -->
<g id="edge20" class="edge">
<title>FFmpeg-&gt;CPU</title>
<path fill="none" stroke="black" d="M244.56,-219.13C245.74,-194.8 247.91,-150.3 249.33,-121.06"/>
<polygon fill="black" stroke="black" points="252.81,-121.6 249.8,-111.44 245.81,-121.26 252.81,-121.6"/>
</g>
<!-- FFmpeg&#45;&gt;VAAPI -->
<g id="edge19" class="edge">
<title>FFmpeg-&gt;VAAPI</title>
<path fill="none" stroke="black" d="M234.03,-219.31C229.47,-211.2 223.91,-201.34 218.8,-192.28"/>
<polygon fill="black" stroke="black" points="222.01,-190.84 214.05,-183.85 215.91,-194.28 222.01,-190.84"/>
</g>
</g>
</svg>