<svg xmlns="http://www.w3.org/2000/svg" xmlns:xlink="http://www.w3.org/1999/xlink" width="755pt" height="332pt" viewBox="0.00 0.00 754.61 332.00">
<g id="graph0" class="graph" transform="scale(1 1) rotate(0) translate(4 328)">
<polygon fill="white" stroke="none" points="-4,4 -4,-328 750.61,-328 750.61,4 -4,4"/>
<!-- tee -->
<g id="node1" class="node">
<title>tee</title>
<path fill="#f2f2f2" stroke="black" d="M568.54,-324C568.54,-324 538.54,-324 538.54,-324 532.54,-324 526.54,-318 526.54,-312 526.54,-312 526.54,-300 526.54,-300 526.54,-294 532.54,-288 538.54,-288 538.54,-288 568.54,-288 568.54,-288 574.54,-288 580.54,-294 580.54,-300 580.54,-300 580.54,-312 580.54,-312 580.54,-318 574.54,-324 568.54,-324"/>
<text text-anchor="middle" x="553.54" y="-301.8" font-family="Times,serif" font-size="14.00">tee</text>
</g>
<!-- preproc -->
<g id="node2" class="node">
<title>preproc</title>
<path fill="white" stroke="black" d="M707.08,-252C707.08,-252 12,-252 12,-252 6,-252 0,-246 0,-240 0,-240 0,-228 0,-228 0,-222 6,-216 12,-216 12,-216 707.08,-216 707.08,-216 713.08,-216 719.08,-222 719.08,-228 719.08,-228 719.08,-240 719.08,-240 719.08,-246 713.08,-252 707.08,-252"/>
<text text-anchor="middle" x="359.54" y="-229.8" font-family="Times,serif" font-size="14.00">preprocess=videoscale ! videoconvert ! video/x-raw,format=RGBP ! tensor_convert ! opencv_tensor_normalize range=&lt;0,1&gt;</text>
</g>
<!-- tee&#45;&gt;preproc -->
<g id="edge1" class="edge">
<title>tee-&gt;preproc</title>
<path fill="none" stroke="black" d="M526.16,-295.12C498.33,-285.08 454.34,-269.21 418.55,-256.29"/>
<polygon fill="black" stroke="black" points="419.75,-253.01 409.16,-252.9 417.38,-259.59 419.75,-253.01"/>
</g>
<!-- aggregate -->
<g id="node5" class="node">
<title>aggregate</title>
<path fill="white" stroke="black" d="M641,-36C641,-36 498.08,-36 498.08,-36 492.08,-36 486.08,-30 486.08,-24 486.08,-24 486.08,-12 486.08,-12 486.08,-6 492.08,0 498.08,0 498.08,0 641,0 641,0 647,0 653,-6 653,-12 653,-12 653,-24 653,-24 653,-30 647,-36 641,-36"/>
<text text-anchor="middle" x="569.54" y="-13.8" font-family="Times,serif" font-size="14.00">aggregate=meta_aggregate</text>
</g>
<!-- tee&#45;&gt;aggregate -->
<g id="edge5" class="edge">
<title>tee-&gt;aggregate</title>
<path fill="none" stroke="black" d="M580.99,-305.9C621,-305.53 694.3,-298.14 728.54,-252 766.17,-201.29 743.41,-155.45 667.54,-72 656.23,-59.56 641.3,-49.45 626.51,-41.54"/>
<polygon fill="black" stroke="black" points="628.2,-38.47 617.69,-37.08 625.04,-44.71 628.2,-38.47"/>
</g>
<!-- processing -->
<g id="node3" class="node">
<title>processing</title>
<path fill="white" stroke="black" d="M676.7,-180C676.7,-180 104.39,-180 104.39,-180 98.39,-180 92.39,-174 92.39,-168 92.39,-168 92.39,-156 92.39,-156 92.39,-150 98.39,-144 104.39,-144 104.39,-144 676.7,-144 676.7,-144 682.7,-144 688.7,-150 688.7,-156 688.7,-156 688.7,-168 688.7,-168 688.7,-174 682.7,-180 676.7,-180"/>
<text text-anchor="middle" x="390.54" y="-157.8" font-family="Times,serif" font-size="14.00">process=pytorch_tensor_inference model=torchvision.models.detection.ssdlite320_mobilenet_v3_large</text>
</g>
<!-- preproc&#45;&gt;processing -->
<g id="edge2" class="edge">
<title>preproc-&gt;processing</title>
<path fill="none" stroke="black" d="M367.2,-215.7C370.58,-208.07 374.64,-198.92 378.41,-190.4"/>
<polygon fill="black" stroke="black" points="381.5,-192.05 382.35,-181.49 375.1,-189.21 381.5,-192.05"/>
</g>
<!-- postproc -->
<g id="node4" class="node">
<title>postproc</title>
<path fill="white" stroke="black" d="M646.94,-108C646.94,-108 258.14,-108 258.14,-108 252.14,-108 246.14,-102 246.14,-96 246.14,-96 246.14,-84 246.14,-84 246.14,-78 252.14,-72 258.14,-72 258.14,-72 646.94,-72 646.94,-72 652.94,-72 658.94,-78 658.94,-84 658.94,-84 658.94,-96 658.94,-96 658.94,-102 652.94,-108 646.94,-108"/>
<text text-anchor="middle" x="452.54" y="-85.8" font-family="Times,serif" font-size="14.00">postprocess=tensor_postproc_detection labels-file=coco_91cl_bkgr.txt</text>
</g>
<!-- processing&#45;&gt;postproc -->
<g id="edge3" class="edge">
<title>processing-&gt;postproc</title>
<path fill="none" stroke="black" d="M405.87,-143.7C413.08,-135.56 421.82,-125.69 429.78,-116.7"/>
<polygon fill="black" stroke="black" points="432.38,-119.04 436.39,-109.24 427.14,-114.4 432.38,-119.04"/>
</g>
<!-- postproc&#45;&gt;aggregate -->
<g id="edge4" class="edge">
<title>postproc-&gt;aggregate</title>
<path fill="none" stroke="black" d="M481.76,-71.52C496.67,-62.6 515,-51.63 531.05,-42.03"/>
<polygon fill="black" stroke="black" points="532.61,-45.18 539.39,-37.04 529.01,-39.17 532.61,-45.18"/>
</g>
</g>
</svg>