<svg xmlns="http://www.w3.org/2000/svg" xmlns:xlink="http://www.w3.org/1999/xlink" width="682pt" height="72pt" viewBox="0.00 0.00 681.99 72.00">
<g id="graph0" class="graph" transform="scale(1 1) rotate(0) translate(4 68)">
<polygon fill="white" stroke="none" points="-4,4 -4,-68 677.99,-68 677.99,4 -4,4"/>
<!-- tee -->
<g id="node1" class="node">
<title>tee</title>
<path fill="#f2f2f2" stroke="black" d="M42,-59C42,-59 12,-59 12,-59 6,-59 0,-53 0,-47 0,-47 0,-35 0,-35 0,-29 6,-23 12,-23 12,-23 42,-23 42,-23 48,-23 54,-29 54,-35 54,-35 54,-47 54,-47 54,-53 48,-59 42,-59"/>
<text text-anchor="middle" x="27" y="-36.8" font-family="Times,serif" font-size="14.00">tee</text>
</g>
<!-- aggregate -->
<g id="node5" class="node">
<title>aggregate</title>
<path fill="#b0e2ff" stroke="black" d="M661.99,-59C661.99,-59 581.37,-59 581.37,-59 575.37,-59 569.37,-53 569.37,-47 569.37,-47 569.37,-35 569.37,-35 569.37,-29 575.37,-23 581.37,-23 581.37,-23 661.99,-23 661.99,-23 667.99,-23 673.99,-29 673.99,-35 673.99,-35 673.99,-47 673.99,-47 673.99,-53 667.99,-59 661.99,-59"/>
<text text-anchor="middle" x="621.68" y="-36.8" font-family="Times,serif" font-size="14.00">meta_aggregate</text>
</g>
<!-- tee&#45;&gt;aggregate -->
<g id="edge6" class="edge">
<title>tee-&gt;aggregate</title>
<path fill="none" stroke="black" d="M54.33,-45.77C93.89,-52.5 171.11,-64 237.27,-64 237.27,-64 237.27,-64 359.29,-64 427.41,-64 505.13,-56.15 558,-49.63"/>
<polygon fill="black" stroke="black" points="558.23,-53.12 567.72,-48.4 557.36,-46.18 558.23,-53.12"/>
</g>
<!-- roisplit -->
<g id="node6" class="node">
<title>roisplit</title>
<path fill="#b0e2ff" stroke="black" d="M140.67,-36C140.67,-36 102,-36 102,-36 96,-36 90,-30 90,-24 90,-24 90,-12 90,-12 90,-6 96,0 102,0 102,0 140.67,0 140.67,0 146.67,0 152.67,-6 152.67,-12 152.67,-12 152.67,-24 152.67,-24 152.67,-30 146.67,-36 140.67,-36"/>
<text text-anchor="middle" x="121.33" y="-13.8" font-family="Times,serif" font-size="14.00">roi_split</text>
</g>
<!-- tee&#45;&gt;roisplit -->
<g id="edge1" class="edge">
<title>tee-&gt;roisplit</title>
<path fill="none" stroke="black" d="M54.21,-34.47C61.84,-32.57 70.36,-30.45 78.69,-28.37"/>
<polygon fill="black" stroke="black" points="79.49,-31.78 88.34,-25.97 77.79,-24.99 79.49,-31.78"/>
</g>
<!-- preproc -->
<g id="node2" class="node">
<title>preproc</title>
<path fill="white" stroke="black" d="M275.87,-36C275.87,-36 200.67,-36 200.67,-36 194.67,-36 188.67,-30 188.67,-24 188.67,-24 188.67,-12 188.67,-12 188.67,-6 194.67,0 200.67,0 200.67,0 275.87,0 275.87,0 281.87,0 287.87,-6 287.87,-12 287.87,-12 287.87,-24 287.87,-24 287.87,-30 281.87,-36 275.87,-36"/>
<text text-anchor="middle" x="238.27" y="-13.8" font-family="Times,serif" font-size="14.00">Pre-processing</text>
</g>
<!-- infer -->
<g id="node3" class="node">
<title>infer</title>
<path fill="white" stroke="black" d="M380.71,-36C380.71,-36 335.87,-36 335.87,-36 329.87,-36 323.87,-30 323.87,-24 323.87,-24 323.87,-12 323.87,-12 323.87,-6 329.87,0 335.87,0 335.87,0 380.71,0 380.71,0 386.71,0 392.71,-6 392.71,-12 392.71,-12 392.71,-24 392.71,-24 392.71,-30 386.71,-36 380.71,-36"/>
<text text-anchor="middle" x="358.29" y="-13.8" font-family="Times,serif" font-size="14.00">Inference</text>
</g>
<!-- preproc&#45;&gt;infer -->
<g id="edge3" class="edge">
<title>preproc-&gt;infer</title>
<path fill="none" stroke="black" d="M288.3,-18C296.2,-18 304.35,-18 312.16,-18"/>
<polygon fill="black" stroke="black" points="312.16,-21.5 322.16,-18 312.16,-14.5 312.16,-21.5"/>
</g>
<!-- postproc -->
<g id="node4" class="node">
<title>postproc</title>
<path fill="white" stroke="black" d="M521.37,-36C521.37,-36 440.71,-36 440.71,-36 434.71,-36 428.71,-30 428.71,-24 428.71,-24 428.71,-12 428.71,-12 428.71,-6 434.71,0 440.71,0 440.71,0 521.37,0 521.37,0 527.37,0 533.37,-6 533.37,-12 533.37,-12 533.37,-24 533.37,-24 533.37,-30 527.37,-36 521.37,-36"/>
<text text-anchor="middle" x="481.04" y="-13.8" font-family="Times,serif" font-size="14.00">Post-processing</text>
</g>
<!-- infer&#45;&gt;postproc -->
<g id="edge4" class="edge">
<title>infer-&gt;postproc</title>
<path fill="none" stroke="black" d="M392.93,-18C400.51,-18 408.79,-18 417.14,-18"/>
<polygon fill="black" stroke="black" points="416.99,-21.5 426.99,-18 416.99,-14.5 416.99,-21.5"/>
</g>
<!-- postproc&#45;&gt;aggregate -->
<g id="edge5" class="edge">
<title>postproc-&gt;aggregate</title>
<path fill="none" stroke="black" d="M533.67,-26.56C541.51,-27.87 549.69,-29.22 557.75,-30.56"/>
<polygon fill="black" stroke="black" points="557.08,-34 567.52,-32.18 558.23,-27.09 557.08,-34"/>
</g>
<!-- roisplit&#45;&gt;preproc -->
<g id="edge2" class="edge">
<title>roisplit-&gt;preproc</title>
<path fill="none" stroke="black" d="M153.13,-18C160.46,-18 168.52,-18 176.67,-18"/>
<polygon fill="black" stroke="black" points="176.66,-21.5 186.66,-18 176.66,-14.5 176.66,-21.5"/>
</g>
</g>
</svg>