<svg xmlns="http://www.w3.org/2000/svg" xmlns:xlink="http://www.w3.org/1999/xlink" width="757pt" height="101pt" viewBox="0.00 0.00 757.07 101.00">
<g id="graph0" class="graph" transform="scale(1 1) rotate(0) translate(4 97)">
<title>queue</title>
<polygon fill="white" stroke="none" points="-4,4 -4,-97 753.07,-97 753.07,4 -4,4"/>
<g id="clust1" class="cluster">
<title>cluster_pre</title>
<path fill="none" stroke="black" stroke-dasharray="1,5" d="M20,-8C20,-8 280.61,-8 280.61,-8 286.61,-8 292.61,-14 292.61,-20 292.61,-20 292.61,-73 292.61,-73 292.61,-79 286.61,-85 280.61,-85 280.61,-85 20,-85 20,-85 14,-85 8,-79 8,-73 8,-73 8,-20 8,-20 8,-14 14,-8 20,-8"/>
<text text-anchor="middle" x="150.31" y="-68.4" font-family="Times,serif" font-size="14.00">Pre-processing stage</text>
</g>
<!-- preproc_in -->
<g id="node1" class="node">
<title>preproc_in</title>
<path fill="#f2f2f2" stroke="black" d="M98.53,-52C98.53,-52 28,-52 28,-52 22,-52 16,-46 16,-40 16,-40 16,-28 16,-28 16,-22 22,-16 28,-16 28,-16 98.53,-16 98.53,-16 104.53,-16 110.53,-22 110.53,-28 110.53,-28 110.53,-40 110.53,-40 110.53,-46 104.53,-52 98.53,-52"/>
<text text-anchor="middle" x="63.27" y="-29.8" font-family="Times,serif" font-size="14.00">vaapipostproc</text>
</g>
<!-- preproc_out -->
<g id="node2" class="node">
<title>preproc_out</title>
<path fill="#b0e2ff" stroke="black" d="M272.61,-52C272.61,-52 197.42,-52 197.42,-52 191.42,-52 185.42,-46 185.42,-40 185.42,-40 185.42,-28 185.42,-28 185.42,-22 191.42,-16 197.42,-16 197.42,-16 272.61,-16 272.61,-16 278.61,-16 284.61,-22 284.61,-28 284.61,-28 284.61,-40 284.61,-40 284.61,-46 278.61,-52 272.61,-52"/>
<text text-anchor="middle" x="235.02" y="-29.8" font-family="Times,serif" font-size="14.00">tensor_convert</text>
</g>
<!-- preproc_in&#45;&gt;preproc_out -->
<g id="edge1" class="edge">
<title>preproc_in-&gt;preproc_out</title>
<path fill="none" stroke="black" d="M110.65,-34C130.12,-34 153.01,-34 173.75,-34"/>
<polygon fill="black" stroke="black" points="173.5,-37.5 183.5,-34 173.5,-30.5 173.5,-37.5"/>
<text text-anchor="middle" x="147.98" y="-38.2" font-family="Times,serif" font-size="14.00">system</text>
</g>
<!-- infer -->
<g id="node4" class="node">
<title>infer</title>
<path fill="#b0e2ff" stroke="black" d="M478,-52C478,-52 333.61,-52 333.61,-52 327.61,-52 321.61,-46 321.61,-40 321.61,-40 321.61,-28 321.61,-28 321.61,-22 327.61,-16 333.61,-16 333.61,-16 478,-16 478,-16 484,-16 490,-22 490,-28 490,-28 490,-40 490,-40 490,-46 484,-52 478,-52"/>
<text text-anchor="middle" x="405.81" y="-29.8" font-family="Times,serif" font-size="14.00">openvino_tensor_inference</text>
</g>
<!-- preproc_out&#45;&gt;infer -->
<g id="edge2" class="edge">
<title>preproc_out-&gt;infer</title>
<path fill="none" stroke="black" d="M284.84,-34C292.83,-34 301.34,-34 309.99,-34"/>
<polygon fill="black" stroke="black" points="309.92,-37.5 319.92,-34 309.92,-30.5 309.92,-37.5"/>
</g>
<!-- q -->
<g id="node3" class="node">
<title>q</title>
<path fill="#f2f2f2" stroke="black" d="M569,-52C569,-52 539,-52 539,-52 533,-52 527,-46 527,-40 527,-40 527,-28 527,-28 527,-22 533,-16 539,-16 539,-16 569,-16 569,-16 575,-16 581,-22 581,-28 581,-28 581,-40 581,-40 581,-46 575,-52 569,-52"/>
<text text-anchor="middle" x="554" y="-29.8" font-family="Times,serif" font-size="14.00">queue</text>
</g>
<!-- postproc -->
<g id="node5" class="node">
<title>postproc</title>
<path fill="#b0e2ff" stroke="black" d="M737.07,-52C737.07,-52 630,-52 630,-52 624,-52 618,-46 618,-40 618,-40 618,-28 618,-28 618,-22 624,-16 630,-16 630,-16 737.07,-16 737.07,-16 743.07,-16 749.07,-22 749.07,-28 749.07,-28 749.07,-40 749.07,-40 749.07,-46 743.07,-52 737.07,-52"/>
<text text-anchor="start" x="626" y="-30.8" font-family="Times,serif" font-size="14.00">tensor_postproc_</text>
<text text-anchor="start" x="722.43" y="-30.8" font-family="Times,serif" font-style="italic" font-size="14.00">xxx</text>
</g>
<!-- q&#45;&gt;postproc -->
<g id="edge4" class="edge">
<title>q-&gt;postproc</title>
<path fill="none" stroke="black" d="M581.43,-34C588.92,-34 597.47,-34 606.35,-34"/>
<polygon fill="black" stroke="black" points="606.22,-37.5 616.22,-34 606.22,-30.5 606.22,-37.5"/>
</g>
<!-- infer&#45;&gt;q -->
<g id="edge3" class="edge">
<title>infer-&gt;q</title>
<path fill="none" stroke="black" d="M490.15,-34C498.93,-34 507.5,-34 515.35,-34"/>
<polygon fill="black" stroke="black" points="515.13,-37.5 525.13,-34 515.13,-30.5 515.13,-37.5"/>
</g>
</g>
</svg>