<svg xmlns="http://www.w3.org/2000/svg" xmlns:xlink="http://www.w3.org/1999/xlink" width="879pt" height="101pt" viewBox="0.00 0.00 879.23 101.00">
<g id="graph0" class="graph" transform="scale(1 1) rotate(0) translate(4 97)">
<title>gpu_gpu</title>
<polygon fill="white" stroke="none" points="-4,4 -4,-97 875.23,-97 875.23,4 -4,4"/>
<g id="clust1" class="cluster">
<title>cluster_pre</title>
<path fill="none" stroke="black" stroke-dasharray="1,5" d="M20,-8C20,-8 493.77,-8 493.77,-8 499.77,-8 505.77,-14 505.77,-20 505.77,-20 505.77,-73 505.77,-73 505.77,-79 499.77,-85 493.77,-85 493.77,-85 20,-85 20,-85 14,-85 8,-79 8,-73 8,-73 8,-20 8,-20 8,-14 14,-8 20,-8"/>
<text text-anchor="middle" x="256.89" y="-68.4" font-family="Times,serif" font-size="14.00">Pre-processing stage</text>
</g>
<!-- preproc_in -->
<g id="node1" class="node">
<title>preproc_in</title>
<path fill="#f2f2f2" stroke="black" d="M98.53,-52C98.53,-52 28,-52 28,-52 22,-52 16,-46 16,-40 16,-40 16,-28 16,-28 16,-22 22,-16 28,-16 28,-16 98.53,-16 98.53,-16 104.53,-16 110.53,-22 110.53,-28 110.53,-28 110.53,-40 110.53,-40 110.53,-46 104.53,-52 98.53,-52"/>
<text text-anchor="middle" x="63.27" y="-29.8" font-family="Times,serif" font-size="14.00">vaapipostproc</text>
</g>
<!-- vaapi_ocl -->
<g id="node2" class="node">
<title>vaapi_ocl</title>
<path fill="#b0e2ff" stroke="black" d="M244.06,-52C244.06,-52 159.53,-52 159.53,-52 153.53,-52 147.53,-46 147.53,-40 147.53,-40 147.53,-28 147.53,-28 147.53,-22 153.53,-16 159.53,-16 159.53,-16 244.06,-16 244.06,-16 250.06,-16 256.06,-22 256.06,-28 256.06,-28 256.06,-40 256.06,-40 256.06,-46 250.06,-52 244.06,-52"/>
<text text-anchor="middle" x="201.79" y="-29.8" font-family="Times,serif" font-size="14.00">vaapi_to_opencl</text>
</g>
<!-- preproc_in&#45;&gt;vaapi_ocl -->
<g id="edge1" class="edge">
<title>preproc_in-&gt;vaapi_ocl</title>
<path fill="none" stroke="black" d="M110.87,-34C118.94,-34 127.46,-34 135.92,-34"/>
<polygon fill="black" stroke="black" points="135.84,-37.5 145.84,-34 135.84,-30.5 135.84,-37.5"/>
</g>
<!-- preproc_out -->
<g id="node3" class="node">
<title>preproc_out</title>
<path fill="#b0e2ff" stroke="black" d="M485.77,-52C485.77,-52 352.27,-52 352.27,-52 346.27,-52 340.27,-46 340.27,-40 340.27,-40 340.27,-28 340.27,-28 340.27,-22 346.27,-16 352.27,-16 352.27,-16 485.77,-16 485.77,-16 491.77,-16 497.77,-22 497.77,-28 497.77,-28 497.77,-40 497.77,-40 497.77,-46 491.77,-52 485.77,-52"/>
<text text-anchor="middle" x="419.02" y="-29.8" font-family="Times,serif" font-size="14.00">opencl_tensor_normalize</text>
</g>
<!-- vaapi_ocl&#45;&gt;preproc_out -->
<g id="edge2" class="edge">
<title>vaapi_ocl-&gt;preproc_out</title>
<path fill="none" stroke="black" d="M256.55,-34C278.26,-34 303.92,-34 328.31,-34"/>
<polygon fill="black" stroke="black" points="328.27,-37.5 338.27,-34 328.27,-30.5 328.27,-37.5"/>
<text text-anchor="middle" x="298.16" y="-38.2" font-family="Times,serif" font-size="14.00">OpenCL</text>
</g>
<!-- infer -->
<g id="node4" class="node">
<title>infer</title>
<path fill="#b0e2ff" stroke="black" d="M691.16,-52C691.16,-52 546.77,-52 546.77,-52 540.77,-52 534.77,-46 534.77,-40 534.77,-40 534.77,-28 534.77,-28 534.77,-22 540.77,-16 546.77,-16 546.77,-16 691.16,-16 691.16,-16 697.16,-16 703.16,-22 703.16,-28 703.16,-28 703.16,-40 703.16,-40 703.16,-46 697.16,-52 691.16,-52"/>
<text text-anchor="middle" x="618.97" y="-29.8" font-family="Times,serif" font-size="14.00">openvino_tensor_inference</text>
</g>
<!-- preproc_out&#45;&gt;infer -->
<g id="edge3" class="edge">
<title>preproc_out-&gt;infer</title>
<path fill="none" stroke="black" d="M498.25,-34C506.43,-34 514.8,-34 523.13,-34"/>
<polygon fill="black" stroke="black" points="522.93,-37.5 532.93,-34 522.93,-30.5 522.93,-37.5"/>
</g>
<!-- postproc -->
<g id="node5" class="node">
<title>postproc</title>
<path fill="#b0e2ff" stroke="black" d="M859.23,-52C859.23,-52 752.16,-52 752.16,-52 746.16,-52 740.16,-46 740.16,-40 740.16,-40 740.16,-28 740.16,-28 740.16,-22 746.16,-16 752.16,-16 752.16,-16 859.23,-16 859.23,-16 865.23,-16 871.23,-22 871.23,-28 871.23,-28 871.23,-40 871.23,-40 871.23,-46 865.23,-52 859.23,-52"/>
<text text-anchor="start" x="748.16" y="-30.8" font-family="Times,serif" font-size="14.00">tensor_postproc_</text>
<text text-anchor="start" x="844.59" y="-30.8" font-family="Times,serif" font-style="italic" font-size="14.00">xxx</text>
</g>
<!-- infer&#45;&gt;postproc -->
<g id="edge4" class="edge">
<title>infer-&gt;postproc</title>
<path fill="none" stroke="black" d="M703.41,-34C711.73,-34 720.15,-34 728.39,-34"/>
<polygon fill="black" stroke="black" points="728.38,-37.5 738.38,-34 728.38,-30.5 728.38,-37.5"/>
</g>
</g>
</svg>