<svg xmlns="http://www.w3.org/2000/svg" xmlns:xlink="http://www.w3.org/1999/xlink" width="503pt" height="101pt" viewBox="0.00 0.00 502.92 101.00">
<g id="graph0" class="graph" transform="scale(1 1) rotate(0) translate(4 97)">
<title>vasharing</title>
<polygon fill="white" stroke="none" points="-4,4 -4,-97 498.92,-97 498.92,4 -4,4"/>
<g id="clust1" class="cluster">
<title>cluster_pre</title>
<path fill="none" stroke="black" stroke-dasharray="1,5" d="M12,-8C12,-8 119.47,-8 119.47,-8 125.47,-8 131.47,-14 131.47,-20 131.47,-20 131.47,-73 131.47,-73 131.47,-79 125.47,-85 119.47,-85 119.47,-85 12,-85 12,-85 6,-85 0,-79 0,-73 0,-73 0,-20 0,-20 0,-14 6,-8 12,-8"/>
<text text-anchor="middle" x="65.73" y="-68.4" font-family="Times,serif" font-size="14.00">Pre-processing stage</text>
</g>
<!-- preproc_out -->
<g id="node1" class="node">
<title>preproc_out</title>
<path fill="#f2f2f2" stroke="black" d="M100.5,-52C100.5,-52 29.97,-52 29.97,-52 23.97,-52 17.97,-46 17.97,-40 17.97,-40 17.97,-28 17.97,-28 17.97,-22 23.97,-16 29.97,-16 29.97,-16 100.5,-16 100.5,-16 106.5,-16 112.5,-22 112.5,-28 112.5,-28 112.5,-40 112.5,-40 112.5,-46 106.5,-52 100.5,-52"/>
<text text-anchor="middle" x="65.23" y="-29.8" font-family="Times,serif" font-size="14.00">vaapipostproc</text>
</g>
<!-- infer -->
<g id="node2" class="node">
<title>infer</title>
<path fill="#b0e2ff" stroke="black" d="M315.85,-52C315.85,-52 171.47,-52 171.47,-52 165.47,-52 159.47,-46 159.47,-40 159.47,-40 159.47,-28 159.47,-28 159.47,-22 165.47,-16 171.47,-16 171.47,-16 315.85,-16 315.85,-16 321.85,-16 327.85,-22 327.85,-28 327.85,-28 327.85,-40 327.85,-40 327.85,-46 321.85,-52 315.85,-52"/>
<text text-anchor="middle" x="243.66" y="-29.8" font-family="Times,serif" font-size="14.00">openvino_tensor_inference</text>
</g>
<!-- preproc_out&#45;&gt;infer -->
<g id="edge1" class="edge">
<title>preproc_out-&gt;infer</title>
<path fill="none" stroke="black" d="M112.59,-34C123.53,-34 135.59,-34 147.82,-34"/>
<polygon fill="black" stroke="black" points="147.57,-37.5 157.57,-34 147.57,-30.5 147.57,-37.5"/>
</g>
<!-- postproc -->
<g id="node3" class="node">
<title>postproc</title>
<path fill="#b0e2ff" stroke="black" d="M482.92,-52C482.92,-52 375.85,-52 375.85,-52 369.85,-52 363.85,-46 363.85,-40 363.85,-40 363.85,-28 363.85,-28 363.85,-22 369.85,-16 375.85,-16 375.85,-16 482.92,-16 482.92,-16 488.92,-16 494.92,-22 494.92,-28 494.92,-28 494.92,-40 494.92,-40 494.92,-46 488.92,-52 482.92,-52"/>
<text text-anchor="start" x="371.85" y="-30.8" font-family="Times,serif" font-size="14.00">tensor_postproc_</text>
<text text-anchor="start" x="468.28" y="-30.8" font-family="Times,serif" font-style="italic" font-size="14.00">xxx</text>
</g>
<!-- infer&#45;&gt;postproc -->
<g id="edge2" class="edge">
<title>infer-&gt;postproc</title>
<path fill="none" stroke="black" d="M328.19,-34C336.15,-34 344.2,-34 352.08,-34"/>
<polygon fill="black" stroke="black" points="351.99,-37.5 361.99,-34 351.99,-30.5 351.99,-37.5"/>
</g>
</g>
</svg>