<svg xmlns="http://www.w3.org/2000/svg" xmlns:xlink="http://www.w3.org/1999/xlink" width="792pt" height="101pt" viewBox="0.00 0.00 792.15 101.00">
<g id="graph0" class="graph" transform="scale(1 1) rotate(0) translate(4 97)">
<title>gpu_cpu</title>
<polygon fill="white" stroke="none" points="-4,4 -4,-97 788.15,-97 788.15,4 -4,4"/>
<g id="clust1" class="cluster">
<title>cluster_pre</title>
<path fill="none" stroke="black" stroke-dasharray="1,5" d="M20,-8C20,-8 406.7,-8 406.7,-8 412.7,-8 418.7,-14 418.7,-20 418.7,-20 418.7,-73 418.7,-73 418.7,-79 412.7,-85 406.7,-85 406.7,-85 20,-85 20,-85 14,-85 8,-79 8,-73 8,-73 8,-20 8,-20 8,-14 14,-8 20,-8"/>
<text text-anchor="middle" x="213.35" y="-68.4" font-family="Times,serif" font-size="14.00">Pre-processing stage</text>
</g>
<!-- preproc_in -->
<g id="node1" class="node">
<title>preproc_in</title>
<path fill="#f2f2f2" stroke="black" d="M98.53,-52C98.53,-52 28,-52 28,-52 22,-52 16,-46 16,-40 16,-40 16,-28 16,-28 16,-22 22,-16 28,-16 28,-16 98.53,-16 98.53,-16 104.53,-16 110.53,-22 110.53,-28 110.53,-28 110.53,-40 110.53,-40 110.53,-46 104.53,-52 98.53,-52"/>
<text text-anchor="middle" x="63.27" y="-29.8" font-family="Times,serif" font-size="14.00">vaapipostproc</text>
</g>
<!-- videoconvert -->
<g id="node3" class="node">
<title>videoconvert</title>
<path fill="#f2f2f2" stroke="black" d="M224.61,-52C224.61,-52 159.53,-52 159.53,-52 153.53,-52 147.53,-46 147.53,-40 147.53,-40 147.53,-28 147.53,-28 147.53,-22 153.53,-16 159.53,-16 159.53,-16 224.61,-16 224.61,-16 230.61,-16 236.61,-22 236.61,-28 236.61,-28 236.61,-40 236.61,-40 236.61,-46 230.61,-52 224.61,-52"/>
<text text-anchor="middle" x="192.07" y="-29.8" font-family="Times,serif" font-size="14.00">videoconvert</text>
</g>
<!-- preproc_in&#45;&gt;videoconvert -->
<g id="edge1" class="edge">
<title>preproc_in-&gt;videoconvert</title>
<path fill="none" stroke="black" d="M110.76,-34C118.93,-34 127.5,-34 135.87,-34"/>
<polygon fill="black" stroke="black" points="135.6,-37.5 145.6,-34 135.6,-30.5 135.6,-37.5"/>
</g>
<!-- preproc_out -->
<g id="node2" class="node">
<title>preproc_out</title>
<path fill="#b0e2ff" stroke="black" d="M398.7,-52C398.7,-52 323.5,-52 323.5,-52 317.5,-52 311.5,-46 311.5,-40 311.5,-40 311.5,-28 311.5,-28 311.5,-22 317.5,-16 323.5,-16 323.5,-16 398.7,-16 398.7,-16 404.7,-16 410.7,-22 410.7,-28 410.7,-28 410.7,-40 410.7,-40 410.7,-46 404.7,-52 398.7,-52"/>
<text text-anchor="middle" x="361.1" y="-29.8" font-family="Times,serif" font-size="14.00">tensor_convert</text>
</g>
<!-- infer -->
<g id="node4" class="node">
<title>infer</title>
<path fill="#b0e2ff" stroke="black" d="M604.08,-52C604.08,-52 459.7,-52 459.7,-52 453.7,-52 447.7,-46 447.7,-40 447.7,-40 447.7,-28 447.7,-28 447.7,-22 453.7,-16 459.7,-16 459.7,-16 604.08,-16 604.08,-16 610.08,-16 616.08,-22 616.08,-28 616.08,-28 616.08,-40 616.08,-40 616.08,-46 610.08,-52 604.08,-52"/>
<text text-anchor="middle" x="531.89" y="-29.8" font-family="Times,serif" font-size="14.00">openvino_tensor_inference</text>
</g>
<!-- preproc_out&#45;&gt;infer -->
<g id="edge3" class="edge">
<title>preproc_out-&gt;infer</title>
<path fill="none" stroke="black" d="M410.92,-34C418.91,-34 427.42,-34 436.08,-34"/>
<polygon fill="black" stroke="black" points="436,-37.5 446,-34 436,-30.5 436,-37.5"/>
</g>
<!-- videoconvert&#45;&gt;preproc_out -->
<g id="edge2" class="edge">
<title>videoconvert-&gt;preproc_out</title>
<path fill="none" stroke="black" d="M236.96,-34C256.2,-34 279.11,-34 299.91,-34"/>
<polygon fill="black" stroke="black" points="299.7,-37.5 309.7,-34 299.7,-30.5 299.7,-37.5"/>
<text text-anchor="middle" x="274.06" y="-38.2" font-family="Times,serif" font-size="14.00">system</text>
</g>
<!-- postproc -->
<g id="node5" class="node">
<title>postproc</title>
<path fill="#b0e2ff" stroke="black" d="M772.15,-52C772.15,-52 665.08,-52 665.08,-52 659.08,-52 653.08,-46 653.08,-40 653.08,-40 653.08,-28 653.08,-28 653.08,-22 659.08,-16 665.08,-16 665.08,-16 772.15,-16 772.15,-16 778.15,-16 784.15,-22 784.15,-28 784.15,-28 784.15,-40 784.15,-40 784.15,-46 778.15,-52 772.15,-52"/>
<text text-anchor="start" x="661.08" y="-30.8" font-family="Times,serif" font-size="14.00">tensor_postproc_</text>
<text text-anchor="start" x="757.51" y="-30.8" font-family="Times,serif" font-style="italic" font-size="14.00">xxx</text>
</g>
<!-- infer&#45;&gt;postproc -->
<g id="edge4" class="edge">
<title>infer-&gt;postproc</title>
<path fill="none" stroke="black" d="M616.34,-34C624.66,-34 633.07,-34 641.31,-34"/>
<polygon fill="black" stroke="black" points="641.3,-37.5 651.3,-34 641.3,-30.5 641.3,-37.5"/>
</g>
</g>
</svg>